<?xml version="1.0" encoding="utf-8"?>
<svg xmlns="http://www.w3.org/2000/svg" xmlns:xlink="http://www.w3.org/1999/xlink" width="600" height="400" viewBox="0 0 2400 1600">
<defs>
  <clipPath id="clip260">
    <rect x="0" y="0" width="2400" height="1600"/>
  </clipPath>
</defs>
<path clip-path="url(#clip260)" d="
M0 1600 L2400 1600 L2400 0 L0 0  Z
  " fill="#ffffff" fill-rule="evenodd" fill-opacity="1"/>
<defs>
  <clipPath id="clip261">
    <rect x="480" y="0" width="1681" height="1600"/>
  </clipPath>
</defs>
<path clip-path="url(#clip260)" d="
M238.13 1423.18 L2352.76 1423.18 L2352.76 47.2441 L238.13 47.2441  Z
  " fill="#ffffff" fill-rule="evenodd" fill-opacity="1"/>
<defs>
  <clipPath id="clip262">
    <rect x="238" y="47" width="2116" height="1377"/>
  </clipPath>
</defs>
<polyline clip-path="url(#clip262)" style="stroke:#000000; stroke-width:2; stroke-opacity:0.1; fill:none" points="
  297.978,1423.18 297.978,47.2441 
  "/>
<polyline clip-path="url(#clip262)" style="stroke:#000000; stroke-width:2; stroke-opacity:0.1; fill:none" points="
  797.21,1423.18 797.21,47.2441 
  "/>
<polyline clip-path="url(#clip262)" style="stroke:#000000; stroke-width:2; stroke-opacity:0.1; fill:none" points="
  1296.44,1423.18 1296.44,47.2441 
  "/>
<polyline clip-path="url(#clip262)" style="stroke:#000000; stroke-width:2; stroke-opacity:0.1; fill:none" points="
  1795.67,1423.18 1795.67,47.2441 
  "/>
<polyline clip-path="url(#clip262)" style="stroke:#000000; stroke-width:2; stroke-opacity:0.1; fill:none" points="
  2294.9,1423.18 2294.9,47.2441 
  "/>
<polyline clip-path="url(#clip260)" style="stroke:#000000; stroke-width:4; stroke-opacity:1; fill:none" points="
  238.13,1423.18 2352.76,1423.18 
  "/>
<polyline clip-path="url(#clip260)" style="stroke:#000000; stroke-width:4; stroke-opacity:1; fill:none" points="
  297.978,1423.18 297.978,1406.67 
  "/>
<polyline clip-path="url(#clip260)" style="stroke:#000000; stroke-width:4; stroke-opacity:1; fill:none" points="
  797.21,1423.18 797.21,1406.67 
  "/>
<polyline clip-path="url(#clip260)" style="stroke:#000000; stroke-width:4; stroke-opacity:1; fill:none" points="
  1296.44,1423.18 1296.44,1406.67 
  "/>
<polyline clip-path="url(#clip260)" style="stroke:#000000; stroke-width:4; stroke-opacity:1; fill:none" points="
  1795.67,1423.18 1795.67,1406.67 
  "/>
<polyline clip-path="url(#clip260)" style="stroke:#000000; stroke-width:4; stroke-opacity:1; fill:none" points="
  2294.9,1423.18 2294.9,1406.67 
  "/>
<path clip-path="url(#clip260)" d="M 0 0 M279.494 1452.37 Q275.883 1452.37 274.054 1455.94 Q272.249 1459.48 272.249 1466.61 Q272.249 1473.71 274.054 1477.28 Q275.883 1480.82 279.494 1480.82 Q283.129 1480.82 284.934 1477.28 Q286.763 1473.71 286.763 1466.61 Q286.763 1459.48 284.934 1455.94 Q283.129 1452.37 279.494 1452.37 M279.494 1448.67 Q285.304 1448.67 288.36 1453.27 Q291.439 1457.86 291.439 1466.61 Q291.439 1475.33 288.36 1479.94 Q285.304 1484.52 279.494 1484.52 Q273.684 1484.52 270.605 1479.94 Q267.55 1475.33 267.55 1466.61 Q267.55 1457.86 270.605 1453.27 Q273.684 1448.67 279.494 1448.67 Z" fill="#000000" fill-rule="evenodd" fill-opacity="1" /><path clip-path="url(#clip260)" d="M 0 0 M296.508 1477.97 L301.392 1477.97 L301.392 1483.85 L296.508 1483.85 L296.508 1477.97 Z" fill="#000000" fill-rule="evenodd" fill-opacity="1" /><path clip-path="url(#clip260)" d="M 0 0 M316.462 1452.37 Q312.851 1452.37 311.022 1455.94 Q309.216 1459.48 309.216 1466.61 Q309.216 1473.71 311.022 1477.28 Q312.851 1480.82 316.462 1480.82 Q320.096 1480.82 321.901 1477.28 Q323.73 1473.71 323.73 1466.61 Q323.73 1459.48 321.901 1455.94 Q320.096 1452.37 316.462 1452.37 M316.462 1448.67 Q322.272 1448.67 325.327 1453.27 Q328.406 1457.86 328.406 1466.61 Q328.406 1475.33 325.327 1479.94 Q322.272 1484.52 316.462 1484.52 Q310.652 1484.52 307.573 1479.94 Q304.517 1475.33 304.517 1466.61 Q304.517 1457.86 307.573 1453.27 Q310.652 1448.67 316.462 1448.67 Z" fill="#000000" fill-rule="evenodd" fill-opacity="1" /><path clip-path="url(#clip260)" d="M 0 0 M773.876 1479.92 L790.196 1479.92 L790.196 1483.85 L768.252 1483.85 L768.252 1479.92 Q770.914 1477.16 775.497 1472.53 Q780.103 1467.88 781.284 1466.54 Q783.529 1464.01 784.409 1462.28 Q785.312 1460.52 785.312 1458.83 Q785.312 1456.07 783.367 1454.34 Q781.446 1452.6 778.344 1452.6 Q776.145 1452.6 773.691 1453.37 Q771.261 1454.13 768.483 1455.68 L768.483 1450.96 Q771.307 1449.82 773.761 1449.25 Q776.214 1448.67 778.251 1448.67 Q783.622 1448.67 786.816 1451.35 Q790.011 1454.04 790.011 1458.53 Q790.011 1460.66 789.2 1462.58 Q788.413 1464.48 786.307 1467.07 Q785.728 1467.74 782.626 1470.96 Q779.525 1474.15 773.876 1479.92 Z" fill="#000000" fill-rule="evenodd" fill-opacity="1" /><path clip-path="url(#clip260)" d="M 0 0 M795.265 1477.97 L800.15 1477.97 L800.15 1483.85 L795.265 1483.85 L795.265 1477.97 Z" fill="#000000" fill-rule="evenodd" fill-opacity="1" /><path clip-path="url(#clip260)" d="M 0 0 M805.265 1449.29 L823.622 1449.29 L823.622 1453.23 L809.548 1453.23 L809.548 1461.7 Q810.566 1461.35 811.585 1461.19 Q812.603 1461 813.622 1461 Q819.409 1461 822.788 1464.18 Q826.168 1467.35 826.168 1472.76 Q826.168 1478.34 822.696 1481.44 Q819.223 1484.52 812.904 1484.52 Q810.728 1484.52 808.46 1484.15 Q806.214 1483.78 803.807 1483.04 L803.807 1478.34 Q805.89 1479.48 808.112 1480.03 Q810.335 1480.59 812.811 1480.59 Q816.816 1480.59 819.154 1478.48 Q821.492 1476.38 821.492 1472.76 Q821.492 1469.15 819.154 1467.05 Q816.816 1464.94 812.811 1464.94 Q810.936 1464.94 809.061 1465.36 Q807.21 1465.77 805.265 1466.65 L805.265 1449.29 Z" fill="#000000" fill-rule="evenodd" fill-opacity="1" /><path clip-path="url(#clip260)" d="M 0 0 M1268.24 1449.29 L1286.59 1449.29 L1286.59 1453.23 L1272.52 1453.23 L1272.52 1461.7 Q1273.54 1461.35 1274.55 1461.19 Q1275.57 1461 1276.59 1461 Q1282.38 1461 1285.76 1464.18 Q1289.14 1467.35 1289.14 1472.76 Q1289.14 1478.34 1285.67 1481.44 Q1282.19 1484.52 1275.87 1484.52 Q1273.7 1484.52 1271.43 1484.15 Q1269.18 1483.78 1266.78 1483.04 L1266.78 1478.34 Q1268.86 1479.48 1271.08 1480.03 Q1273.3 1480.59 1275.78 1480.59 Q1279.79 1480.59 1282.12 1478.48 Q1284.46 1476.38 1284.46 1472.76 Q1284.46 1469.15 1282.12 1467.05 Q1279.79 1464.94 1275.78 1464.94 Q1273.91 1464.94 1272.03 1465.36 Q1270.18 1465.77 1268.24 1466.65 L1268.24 1449.29 Z" fill="#000000" fill-rule="evenodd" fill-opacity="1" /><path clip-path="url(#clip260)" d="M 0 0 M1294.21 1477.97 L1299.09 1477.97 L1299.09 1483.85 L1294.21 1483.85 L1294.21 1477.97 Z" fill="#000000" fill-rule="evenodd" fill-opacity="1" /><path clip-path="url(#clip260)" d="M 0 0 M1314.16 1452.37 Q1310.55 1452.37 1308.72 1455.94 Q1306.92 1459.48 1306.92 1466.61 Q1306.92 1473.71 1308.72 1477.28 Q1310.55 1480.82 1314.16 1480.82 Q1317.8 1480.82 1319.6 1477.28 Q1321.43 1473.71 1321.43 1466.61 Q1321.43 1459.48 1319.6 1455.94 Q1317.8 1452.37 1314.16 1452.37 M1314.16 1448.67 Q1319.97 1448.67 1323.03 1453.27 Q1326.11 1457.86 1326.11 1466.61 Q1326.11 1475.33 1323.03 1479.94 Q1319.97 1484.52 1314.16 1484.52 Q1308.35 1484.52 1305.27 1479.94 Q1302.22 1475.33 1302.22 1466.61 Q1302.22 1457.86 1305.27 1453.27 Q1308.35 1448.67 1314.16 1448.67 Z" fill="#000000" fill-rule="evenodd" fill-opacity="1" /><path clip-path="url(#clip260)" d="M 0 0 M1766.58 1449.29 L1788.8 1449.29 L1788.8 1451.28 L1776.25 1483.85 L1771.37 1483.85 L1783.17 1453.23 L1766.58 1453.23 L1766.58 1449.29 Z" fill="#000000" fill-rule="evenodd" fill-opacity="1" /><path clip-path="url(#clip260)" d="M 0 0 M1793.87 1477.97 L1798.75 1477.97 L1798.75 1483.85 L1793.87 1483.85 L1793.87 1477.97 Z" fill="#000000" fill-rule="evenodd" fill-opacity="1" /><path clip-path="url(#clip260)" d="M 0 0 M1803.87 1449.29 L1822.22 1449.29 L1822.22 1453.23 L1808.15 1453.23 L1808.15 1461.7 Q1809.17 1461.35 1810.19 1461.19 Q1811.21 1461 1812.22 1461 Q1818.01 1461 1821.39 1464.18 Q1824.77 1467.35 1824.77 1472.76 Q1824.77 1478.34 1821.3 1481.44 Q1817.83 1484.52 1811.51 1484.52 Q1809.33 1484.52 1807.06 1484.15 Q1804.82 1483.78 1802.41 1483.04 L1802.41 1478.34 Q1804.49 1479.48 1806.71 1480.03 Q1808.94 1480.59 1811.41 1480.59 Q1815.42 1480.59 1817.76 1478.48 Q1820.09 1476.38 1820.09 1472.76 Q1820.09 1469.15 1817.76 1467.05 Q1815.42 1464.94 1811.41 1464.94 Q1809.54 1464.94 1807.66 1465.36 Q1805.81 1465.77 1803.87 1466.65 L1803.87 1449.29 Z" fill="#000000" fill-rule="evenodd" fill-opacity="1" /><path clip-path="url(#clip260)" d="M 0 0 M2253.3 1479.92 L2260.94 1479.92 L2260.94 1453.55 L2252.63 1455.22 L2252.63 1450.96 L2260.89 1449.29 L2265.56 1449.29 L2265.56 1479.92 L2273.2 1479.92 L2273.2 1483.85 L2253.3 1483.85 L2253.3 1479.92 Z" fill="#000000" fill-rule="evenodd" fill-opacity="1" /><path clip-path="url(#clip260)" d="M 0 0 M2288.27 1452.37 Q2284.66 1452.37 2282.83 1455.94 Q2281.03 1459.48 2281.03 1466.61 Q2281.03 1473.71 2282.83 1477.28 Q2284.66 1480.82 2288.27 1480.82 Q2291.91 1480.82 2293.71 1477.28 Q2295.54 1473.71 2295.54 1466.61 Q2295.54 1459.48 2293.71 1455.94 Q2291.91 1452.37 2288.27 1452.37 M2288.27 1448.67 Q2294.08 1448.67 2297.14 1453.27 Q2300.22 1457.86 2300.22 1466.61 Q2300.22 1475.33 2297.14 1479.94 Q2294.08 1484.52 2288.27 1484.52 Q2282.46 1484.52 2279.38 1479.94 Q2276.33 1475.33 2276.33 1466.61 Q2276.33 1457.86 2279.38 1453.27 Q2282.46 1448.67 2288.27 1448.67 Z" fill="#000000" fill-rule="evenodd" fill-opacity="1" /><path clip-path="url(#clip260)" d="M 0 0 M2305.29 1477.97 L2310.17 1477.97 L2310.17 1483.85 L2305.29 1483.85 L2305.29 1477.97 Z" fill="#000000" fill-rule="evenodd" fill-opacity="1" /><path clip-path="url(#clip260)" d="M 0 0 M2325.24 1452.37 Q2321.63 1452.37 2319.8 1455.94 Q2318 1459.48 2318 1466.61 Q2318 1473.71 2319.8 1477.28 Q2321.63 1480.82 2325.24 1480.82 Q2328.87 1480.82 2330.68 1477.28 Q2332.51 1473.71 2332.51 1466.61 Q2332.51 1459.48 2330.68 1455.94 Q2328.87 1452.37 2325.24 1452.37 M2325.24 1448.67 Q2331.05 1448.67 2334.11 1453.27 Q2337.18 1457.86 2337.18 1466.61 Q2337.18 1475.33 2334.11 1479.94 Q2331.05 1484.52 2325.24 1484.52 Q2319.43 1484.52 2316.35 1479.94 Q2313.3 1475.33 2313.3 1466.61 Q2313.3 1457.86 2316.35 1453.27 Q2319.43 1448.67 2325.24 1448.67 Z" fill="#000000" fill-rule="evenodd" fill-opacity="1" /><path clip-path="url(#clip260)" d="M 0 0 M1294.5 1510.27 L1294.5 1520.4 L1306.57 1520.4 L1306.57 1524.95 L1294.5 1524.95 L1294.5 1544.3 Q1294.5 1548.66 1295.68 1549.9 Q1296.89 1551.14 1300.55 1551.14 L1306.57 1551.14 L1306.57 1556.04 L1300.55 1556.04 Q1293.77 1556.04 1291.19 1553.53 Q1288.62 1550.98 1288.62 1544.3 L1288.62 1524.95 L1284.32 1524.95 L1284.32 1520.4 L1288.62 1520.4 L1288.62 1510.27 L1294.5 1510.27 Z" fill="#000000" fill-rule="evenodd" fill-opacity="1" /><polyline clip-path="url(#clip262)" style="stroke:#000000; stroke-width:2; stroke-opacity:0.1; fill:none" points="
  238.13,1384.24 2352.76,1384.24 
  "/>
<polyline clip-path="url(#clip262)" style="stroke:#000000; stroke-width:2; stroke-opacity:0.1; fill:none" points="
  238.13,1059.73 2352.76,1059.73 
  "/>
<polyline clip-path="url(#clip262)" style="stroke:#000000; stroke-width:2; stroke-opacity:0.1; fill:none" points="
  238.13,735.212 2352.76,735.212 
  "/>
<polyline clip-path="url(#clip262)" style="stroke:#000000; stroke-width:2; stroke-opacity:0.1; fill:none" points="
  238.13,410.699 2352.76,410.699 
  "/>
<polyline clip-path="url(#clip262)" style="stroke:#000000; stroke-width:2; stroke-opacity:0.1; fill:none" points="
  238.13,86.1857 2352.76,86.1857 
  "/>
<polyline clip-path="url(#clip260)" style="stroke:#000000; stroke-width:4; stroke-opacity:1; fill:none" points="
  238.13,1423.18 238.13,47.2441 
  "/>
<polyline clip-path="url(#clip260)" style="stroke:#000000; stroke-width:4; stroke-opacity:1; fill:none" points="
  238.13,1384.24 263.506,1384.24 
  "/>
<polyline clip-path="url(#clip260)" style="stroke:#000000; stroke-width:4; stroke-opacity:1; fill:none" points="
  238.13,1059.73 263.506,1059.73 
  "/>
<polyline clip-path="url(#clip260)" style="stroke:#000000; stroke-width:4; stroke-opacity:1; fill:none" points="
  238.13,735.212 263.506,735.212 
  "/>
<polyline clip-path="url(#clip260)" style="stroke:#000000; stroke-width:4; stroke-opacity:1; fill:none" points="
  238.13,410.699 263.506,410.699 
  "/>
<polyline clip-path="url(#clip260)" style="stroke:#000000; stroke-width:4; stroke-opacity:1; fill:none" points="
  238.13,86.1857 263.506,86.1857 
  "/>
<path clip-path="url(#clip260)" d="M 0 0 M126.205 1370.04 Q122.593 1370.04 120.765 1373.6 Q118.959 1377.14 118.959 1384.27 Q118.959 1391.38 120.765 1394.94 Q122.593 1398.49 126.205 1398.49 Q129.839 1398.49 131.644 1394.94 Q133.473 1391.38 133.473 1384.27 Q133.473 1377.14 131.644 1373.6 Q129.839 1370.04 126.205 1370.04 M126.205 1366.33 Q132.015 1366.33 135.07 1370.94 Q138.149 1375.52 138.149 1384.27 Q138.149 1393 135.07 1397.61 Q132.015 1402.19 126.205 1402.19 Q120.394 1402.19 117.316 1397.61 Q114.26 1393 114.26 1384.27 Q114.26 1375.52 117.316 1370.94 Q120.394 1366.33 126.205 1366.33 Z" fill="#000000" fill-rule="evenodd" fill-opacity="1" /><path clip-path="url(#clip260)" d="M 0 0 M143.218 1395.64 L148.103 1395.64 L148.103 1401.52 L143.218 1401.52 L143.218 1395.64 Z" fill="#000000" fill-rule="evenodd" fill-opacity="1" /><path clip-path="url(#clip260)" d="M 0 0 M163.172 1370.04 Q159.561 1370.04 157.732 1373.6 Q155.927 1377.14 155.927 1384.27 Q155.927 1391.38 157.732 1394.94 Q159.561 1398.49 163.172 1398.49 Q166.806 1398.49 168.612 1394.94 Q170.44 1391.38 170.44 1384.27 Q170.44 1377.14 168.612 1373.6 Q166.806 1370.04 163.172 1370.04 M163.172 1366.33 Q168.982 1366.33 172.038 1370.94 Q175.116 1375.52 175.116 1384.27 Q175.116 1393 172.038 1397.61 Q168.982 1402.19 163.172 1402.19 Q157.362 1402.19 154.283 1397.61 Q151.228 1393 151.228 1384.27 Q151.228 1375.52 154.283 1370.94 Q157.362 1366.33 163.172 1366.33 Z" fill="#000000" fill-rule="evenodd" fill-opacity="1" /><path clip-path="url(#clip260)" d="M 0 0 M190.186 1370.04 Q186.575 1370.04 184.746 1373.6 Q182.94 1377.14 182.94 1384.27 Q182.94 1391.38 184.746 1394.94 Q186.575 1398.49 190.186 1398.49 Q193.82 1398.49 195.625 1394.94 Q197.454 1391.38 197.454 1384.27 Q197.454 1377.14 195.625 1373.6 Q193.82 1370.04 190.186 1370.04 M190.186 1366.33 Q195.996 1366.33 199.051 1370.94 Q202.13 1375.52 202.13 1384.27 Q202.13 1393 199.051 1397.61 Q195.996 1402.19 190.186 1402.19 Q184.376 1402.19 181.297 1397.61 Q178.241 1393 178.241 1384.27 Q178.241 1375.52 181.297 1370.94 Q184.376 1366.33 190.186 1366.33 Z" fill="#000000" fill-rule="evenodd" fill-opacity="1" /><path clip-path="url(#clip260)" d="M 0 0 M128.797 1045.52 Q125.186 1045.52 123.357 1049.09 Q121.552 1052.63 121.552 1059.76 Q121.552 1066.87 123.357 1070.43 Q125.186 1073.97 128.797 1073.97 Q132.431 1073.97 134.237 1070.43 Q136.066 1066.87 136.066 1059.76 Q136.066 1052.63 134.237 1049.09 Q132.431 1045.52 128.797 1045.52 M128.797 1041.82 Q134.607 1041.82 137.663 1046.43 Q140.741 1051.01 140.741 1059.76 Q140.741 1068.49 137.663 1073.09 Q134.607 1077.68 128.797 1077.68 Q122.987 1077.68 119.908 1073.09 Q116.853 1068.49 116.853 1059.76 Q116.853 1051.01 119.908 1046.43 Q122.987 1041.82 128.797 1041.82 Z" fill="#000000" fill-rule="evenodd" fill-opacity="1" /><path clip-path="url(#clip260)" d="M 0 0 M145.811 1071.13 L150.695 1071.13 L150.695 1077.01 L145.811 1077.01 L145.811 1071.13 Z" fill="#000000" fill-rule="evenodd" fill-opacity="1" /><path clip-path="url(#clip260)" d="M 0 0 M159.792 1073.07 L176.112 1073.07 L176.112 1077.01 L154.167 1077.01 L154.167 1073.07 Q156.829 1070.32 161.413 1065.69 Q166.019 1061.03 167.2 1059.69 Q169.445 1057.17 170.325 1055.43 Q171.227 1053.67 171.227 1051.98 Q171.227 1049.23 169.283 1047.49 Q167.362 1045.76 164.26 1045.76 Q162.061 1045.76 159.607 1046.52 Q157.177 1047.28 154.399 1048.83 L154.399 1044.11 Q157.223 1042.98 159.677 1042.4 Q162.13 1041.82 164.167 1041.82 Q169.538 1041.82 172.732 1044.51 Q175.926 1047.19 175.926 1051.68 Q175.926 1053.81 175.116 1055.73 Q174.329 1057.63 172.223 1060.22 Q171.644 1060.89 168.542 1064.11 Q165.44 1067.31 159.792 1073.07 Z" fill="#000000" fill-rule="evenodd" fill-opacity="1" /><path clip-path="url(#clip260)" d="M 0 0 M181.227 1042.45 L199.584 1042.45 L199.584 1046.38 L185.51 1046.38 L185.51 1054.85 Q186.528 1054.51 187.547 1054.34 Q188.565 1054.16 189.584 1054.16 Q195.371 1054.16 198.75 1057.33 Q202.13 1060.5 202.13 1065.92 Q202.13 1071.5 198.658 1074.6 Q195.186 1077.68 188.866 1077.68 Q186.69 1077.68 184.422 1077.31 Q182.176 1076.94 179.769 1076.19 L179.769 1071.5 Q181.852 1072.63 184.075 1073.19 Q186.297 1073.74 188.774 1073.74 Q192.778 1073.74 195.116 1071.63 Q197.454 1069.53 197.454 1065.92 Q197.454 1062.31 195.116 1060.2 Q192.778 1058.09 188.774 1058.09 Q186.899 1058.09 185.024 1058.51 Q183.172 1058.93 181.227 1059.81 L181.227 1042.45 Z" fill="#000000" fill-rule="evenodd" fill-opacity="1" /><path clip-path="url(#clip260)" d="M 0 0 M127.2 721.011 Q123.589 721.011 121.76 724.575 Q119.955 728.117 119.955 735.247 Q119.955 742.353 121.76 745.918 Q123.589 749.46 127.2 749.46 Q130.834 749.46 132.64 745.918 Q134.468 742.353 134.468 735.247 Q134.468 728.117 132.64 724.575 Q130.834 721.011 127.2 721.011 M127.2 717.307 Q133.01 717.307 136.066 721.913 Q139.144 726.497 139.144 735.247 Q139.144 743.973 136.066 748.58 Q133.01 753.163 127.2 753.163 Q121.39 753.163 118.311 748.58 Q115.256 743.973 115.256 735.247 Q115.256 726.497 118.311 721.913 Q121.39 717.307 127.2 717.307 Z" fill="#000000" fill-rule="evenodd" fill-opacity="1" /><path clip-path="url(#clip260)" d="M 0 0 M144.214 746.612 L149.098 746.612 L149.098 752.492 L144.214 752.492 L144.214 746.612 Z" fill="#000000" fill-rule="evenodd" fill-opacity="1" /><path clip-path="url(#clip260)" d="M 0 0 M154.214 717.932 L172.57 717.932 L172.57 721.867 L158.496 721.867 L158.496 730.339 Q159.515 729.992 160.533 729.83 Q161.552 729.645 162.57 729.645 Q168.357 729.645 171.737 732.816 Q175.116 735.987 175.116 741.404 Q175.116 746.983 171.644 750.085 Q168.172 753.163 161.852 753.163 Q159.677 753.163 157.408 752.793 Q155.163 752.423 152.755 751.682 L152.755 746.983 Q154.839 748.117 157.061 748.673 Q159.283 749.228 161.76 749.228 Q165.765 749.228 168.102 747.122 Q170.44 745.015 170.44 741.404 Q170.44 737.793 168.102 735.687 Q165.765 733.58 161.76 733.58 Q159.885 733.58 158.01 733.997 Q156.158 734.413 154.214 735.293 L154.214 717.932 Z" fill="#000000" fill-rule="evenodd" fill-opacity="1" /><path clip-path="url(#clip260)" d="M 0 0 M190.186 721.011 Q186.575 721.011 184.746 724.575 Q182.94 728.117 182.94 735.247 Q182.94 742.353 184.746 745.918 Q186.575 749.46 190.186 749.46 Q193.82 749.46 195.625 745.918 Q197.454 742.353 197.454 735.247 Q197.454 728.117 195.625 724.575 Q193.82 721.011 190.186 721.011 M190.186 717.307 Q195.996 717.307 199.051 721.913 Q202.13 726.497 202.13 735.247 Q202.13 743.973 199.051 748.58 Q195.996 753.163 190.186 753.163 Q184.376 753.163 181.297 748.58 Q178.241 743.973 178.241 735.247 Q178.241 726.497 181.297 721.913 Q184.376 717.307 190.186 717.307 Z" fill="#000000" fill-rule="evenodd" fill-opacity="1" /><path clip-path="url(#clip260)" d="M 0 0 M128.103 396.498 Q124.492 396.498 122.663 400.062 Q120.857 403.604 120.857 410.734 Q120.857 417.84 122.663 421.405 Q124.492 424.946 128.103 424.946 Q131.737 424.946 133.542 421.405 Q135.371 417.84 135.371 410.734 Q135.371 403.604 133.542 400.062 Q131.737 396.498 128.103 396.498 M128.103 392.794 Q133.913 392.794 136.968 397.4 Q140.047 401.984 140.047 410.734 Q140.047 419.46 136.968 424.067 Q133.913 428.65 128.103 428.65 Q122.293 428.65 119.214 424.067 Q116.158 419.46 116.158 410.734 Q116.158 401.984 119.214 397.4 Q122.293 392.794 128.103 392.794 Z" fill="#000000" fill-rule="evenodd" fill-opacity="1" /><path clip-path="url(#clip260)" d="M 0 0 M145.116 422.099 L150.001 422.099 L150.001 427.979 L145.116 427.979 L145.116 422.099 Z" fill="#000000" fill-rule="evenodd" fill-opacity="1" /><path clip-path="url(#clip260)" d="M 0 0 M153.89 393.419 L176.112 393.419 L176.112 395.41 L163.565 427.979 L158.681 427.979 L170.487 397.354 L153.89 397.354 L153.89 393.419 Z" fill="#000000" fill-rule="evenodd" fill-opacity="1" /><path clip-path="url(#clip260)" d="M 0 0 M181.227 393.419 L199.584 393.419 L199.584 397.354 L185.51 397.354 L185.51 405.826 Q186.528 405.479 187.547 405.317 Q188.565 405.132 189.584 405.132 Q195.371 405.132 198.75 408.303 Q202.13 411.474 202.13 416.891 Q202.13 422.47 198.658 425.571 Q195.186 428.65 188.866 428.65 Q186.69 428.65 184.422 428.28 Q182.176 427.909 179.769 427.169 L179.769 422.47 Q181.852 423.604 184.075 424.159 Q186.297 424.715 188.774 424.715 Q192.778 424.715 195.116 422.608 Q197.454 420.502 197.454 416.891 Q197.454 413.28 195.116 411.173 Q192.778 409.067 188.774 409.067 Q186.899 409.067 185.024 409.484 Q183.172 409.9 181.227 410.78 L181.227 393.419 Z" fill="#000000" fill-rule="evenodd" fill-opacity="1" /><path clip-path="url(#clip260)" d="M 0 0 M118.242 99.5305 L125.88 99.5305 L125.88 73.1649 L117.57 74.8316 L117.57 70.5723 L125.834 68.9057 L130.51 68.9057 L130.51 99.5305 L138.149 99.5305 L138.149 103.466 L118.242 103.466 L118.242 99.5305 Z" fill="#000000" fill-rule="evenodd" fill-opacity="1" /><path clip-path="url(#clip260)" d="M 0 0 M143.218 97.5861 L148.103 97.5861 L148.103 103.466 L143.218 103.466 L143.218 97.5861 Z" fill="#000000" fill-rule="evenodd" fill-opacity="1" /><path clip-path="url(#clip260)" d="M 0 0 M163.172 71.9844 Q159.561 71.9844 157.732 75.5491 Q155.927 79.0908 155.927 86.2204 Q155.927 93.3268 157.732 96.8916 Q159.561 100.433 163.172 100.433 Q166.806 100.433 168.612 96.8916 Q170.44 93.3268 170.44 86.2204 Q170.44 79.0908 168.612 75.5491 Q166.806 71.9844 163.172 71.9844 M163.172 68.2807 Q168.982 68.2807 172.038 72.8871 Q175.116 77.4704 175.116 86.2204 Q175.116 94.9472 172.038 99.5537 Q168.982 104.137 163.172 104.137 Q157.362 104.137 154.283 99.5537 Q151.228 94.9472 151.228 86.2204 Q151.228 77.4704 154.283 72.8871 Q157.362 68.2807 163.172 68.2807 Z" fill="#000000" fill-rule="evenodd" fill-opacity="1" /><path clip-path="url(#clip260)" d="M 0 0 M190.186 71.9844 Q186.575 71.9844 184.746 75.5491 Q182.94 79.0908 182.94 86.2204 Q182.94 93.3268 184.746 96.8916 Q186.575 100.433 190.186 100.433 Q193.82 100.433 195.625 96.8916 Q197.454 93.3268 197.454 86.2204 Q197.454 79.0908 195.625 75.5491 Q193.82 71.9844 190.186 71.9844 M190.186 68.2807 Q195.996 68.2807 199.051 72.8871 Q202.13 77.4704 202.13 86.2204 Q202.13 94.9472 199.051 99.5537 Q195.996 104.137 190.186 104.137 Q184.376 104.137 181.297 99.5537 Q178.241 94.9472 178.241 86.2204 Q178.241 77.4704 181.297 72.8871 Q184.376 68.2807 190.186 68.2807 Z" fill="#000000" fill-rule="evenodd" fill-opacity="1" /><path clip-path="url(#clip260)" d="M 0 0 M91.3143 765.545 Q97.68 768.027 99.6216 770.382 Q101.563 772.738 101.563 776.685 L101.563 781.363 L96.6615 781.363 L96.6615 777.926 Q96.6615 775.507 95.5157 774.17 Q94.3699 772.833 90.1048 771.21 L87.4312 770.16 L52.3562 784.578 L52.3562 778.371 L80.238 767.231 L52.3562 756.091 L52.3562 749.885 L91.3143 765.545 Z" fill="#000000" fill-rule="evenodd" fill-opacity="1" /><path clip-path="url(#clip260)" d="M 0 0 M38.5426 729.674 Q45.8632 733.939 53.0246 736.008 Q60.186 738.077 67.5384 738.077 Q74.8908 738.077 82.1159 736.008 Q89.3091 733.907 96.5979 729.674 L96.5979 734.766 Q89.1182 739.541 81.8931 741.928 Q74.668 744.283 67.5384 744.283 Q60.4406 744.283 53.2474 741.928 Q46.0542 739.572 38.5426 734.766 L38.5426 729.674 Z" fill="#000000" fill-rule="evenodd" fill-opacity="1" /><path clip-path="url(#clip260)" d="M 0 0 M42.2347 717.738 L52.3562 717.738 L52.3562 705.675 L56.9077 705.675 L56.9077 717.738 L76.2594 717.738 Q80.6199 717.738 81.8613 716.56 Q83.1026 715.351 83.1026 711.691 L83.1026 705.675 L88.0042 705.675 L88.0042 711.691 Q88.0042 718.47 85.4897 721.048 Q82.9434 723.626 76.2594 723.626 L56.9077 723.626 L56.9077 727.923 L52.3562 727.923 L52.3562 723.626 L42.2347 723.626 L42.2347 717.738 Z" fill="#000000" fill-rule="evenodd" fill-opacity="1" /><path clip-path="url(#clip260)" d="M 0 0 M38.5426 700.455 L38.5426 695.363 Q46.0542 690.588 53.2474 688.233 Q60.4406 685.846 67.5384 685.846 Q74.668 685.846 81.8931 688.233 Q89.1182 690.588 96.5979 695.363 L96.5979 700.455 Q89.3091 696.222 82.1159 694.153 Q74.8908 692.052 67.5384 692.052 Q60.186 692.052 53.0246 694.153 Q45.8632 696.222 38.5426 700.455 Z" fill="#000000" fill-rule="evenodd" fill-opacity="1" /><polyline clip-path="url(#clip262)" style="stroke:#009af9; stroke-width:4; stroke-opacity:1; fill:none" points="
  297.978,1384.24 299.975,1371.26 301.972,1358.28 303.969,1345.31 305.966,1332.34 307.963,1319.39 309.96,1306.45 311.956,1293.52 313.953,1280.62 315.95,1267.73 
  317.947,1254.86 319.944,1242.03 321.941,1229.22 323.938,1216.44 325.935,1203.69 327.932,1190.98 329.929,1178.3 331.926,1165.67 333.923,1153.08 335.92,1140.53 
  337.916,1128.03 339.913,1115.58 341.91,1103.19 343.907,1090.84 345.904,1078.55 347.901,1066.32 349.898,1054.15 351.895,1042.04 353.892,1029.99 355.889,1018.01 
  357.886,1006.1 359.883,994.255 361.88,982.482 363.877,970.782 365.873,959.155 367.87,947.605 369.867,936.132 371.864,924.738 373.861,913.425 375.858,902.193 
  377.855,891.045 379.852,879.98 381.849,869.002 383.846,858.11 385.843,847.306 387.84,836.591 389.837,825.966 391.834,815.433 393.83,804.991 395.827,794.641 
  397.824,784.386 399.821,774.225 401.818,764.159 403.815,754.188 405.812,744.314 407.809,734.537 409.806,724.857 411.803,715.275 413.8,705.791 415.797,696.406 
  417.794,687.12 419.791,677.933 421.787,668.845 423.784,659.857 425.781,650.969 427.778,642.181 429.775,633.492 431.772,624.904 433.769,616.415 435.766,608.026 
  437.763,599.737 439.76,591.548 441.757,583.458 443.754,575.467 445.751,567.575 447.747,559.782 449.744,552.087 451.741,544.49 453.738,536.991 455.735,529.589 
  457.732,522.284 459.729,515.075 461.726,507.962 463.723,500.945 465.72,494.022 467.717,487.194 469.714,480.459 471.711,473.818 473.708,467.269 475.704,460.812 
  477.701,454.446 479.698,448.171 481.695,441.985 483.692,435.889 485.689,429.881 487.686,423.961 489.683,418.128 491.68,412.381 493.677,406.719 495.674,401.142 
  497.671,395.649 499.668,390.239 501.665,384.911 503.661,379.665 505.658,374.499 507.655,369.412 509.652,364.405 511.649,359.476 513.646,354.624 515.643,349.849 
  517.64,345.148 519.637,340.523 521.634,335.971 523.631,331.493 525.628,327.086 527.625,322.75 529.621,318.485 531.618,314.29 533.615,310.163 535.612,306.103 
  537.609,302.111 539.606,298.184 541.603,294.323 543.6,290.526 545.597,286.792 547.594,283.121 549.591,279.512 551.588,275.964 553.585,272.476 555.582,269.047 
  557.578,265.676 559.575,262.363 561.572,259.107 563.569,255.907 565.566,252.762 567.563,249.671 569.56,246.634 571.557,243.65 573.554,240.717 575.551,237.836 
  577.548,235.005 579.545,232.224 581.542,229.492 583.539,226.808 585.535,224.172 587.532,221.582 589.529,219.038 591.526,216.539 593.523,214.085 595.52,211.675 
  597.517,209.308 599.514,206.984 601.511,204.701 603.508,202.459 605.505,200.258 607.502,198.097 609.499,195.974 611.495,193.891 613.492,191.845 615.489,189.836 
  617.486,187.864 619.483,185.928 621.48,184.027 623.477,182.162 625.474,180.33 627.471,178.532 629.468,176.767 631.465,175.035 633.462,173.335 635.459,171.666 
  637.456,170.028 639.452,168.42 641.449,166.843 643.446,165.294 645.443,163.775 647.44,162.283 649.437,160.82 651.434,159.384 653.431,157.974 655.428,156.591 
  657.425,155.234 659.422,153.903 661.419,152.596 663.416,151.314 665.413,150.056 667.409,148.822 669.406,147.611 671.403,146.423 673.4,145.257 675.397,144.114 
  677.394,142.992 679.391,141.891 681.388,140.811 683.385,139.752 685.382,138.713 687.379,137.693 689.376,136.693 691.373,135.712 693.369,134.75 695.366,133.806 
  697.363,132.88 699.36,131.971 701.357,131.081 703.354,130.207 705.351,129.349 707.348,128.509 709.345,127.684 711.342,126.875 713.339,126.082 715.336,125.304 
  717.333,124.541 719.33,123.792 721.326,123.058 723.323,122.338 725.32,121.632 727.317,120.94 729.314,120.26 731.311,119.594 733.308,118.941 735.305,118.301 
  737.302,117.672 739.299,117.056 741.296,116.452 743.293,115.86 745.29,115.279 747.287,114.709 749.283,114.15 751.28,113.602 753.277,113.065 755.274,112.538 
  757.271,112.022 759.268,111.515 761.265,111.018 763.262,110.531 765.259,110.053 767.256,109.585 769.253,109.126 771.25,108.676 773.247,108.234 775.244,107.801 
  777.24,107.377 779.237,106.96 781.234,106.552 783.231,106.152 785.228,105.76 787.225,105.375 789.222,104.998 791.219,104.628 793.216,104.265 795.213,103.91 
  797.21,103.561 799.207,103.219 801.204,102.884 803.2,102.556 805.197,102.233 807.194,101.918 809.191,101.608 811.188,101.304 813.185,101.007 815.182,100.715 
  817.179,100.429 819.176,100.148 821.173,99.8731 823.17,99.6035 825.167,99.3392 827.164,99.08 829.161,98.8259 831.157,98.5768 833.154,98.3326 835.151,98.0932 
  837.148,97.8585 839.145,97.6283 841.142,97.4027 843.139,97.1816 845.136,96.9647 847.133,96.7522 849.13,96.5438 851.127,96.3395 853.124,96.1392 855.121,95.9428 
  857.118,95.7503 859.114,95.5616 861.111,95.3766 863.108,95.1953 865.105,95.0175 867.102,94.8432 869.099,94.6723 871.096,94.5048 873.093,94.3406 875.09,94.1796 
  877.087,94.0218 879.084,93.8671 881.081,93.7154 883.078,93.5668 885.074,93.421 887.071,93.2781 889.068,93.1381 891.065,93.0008 893.062,92.8662 895.059,92.7342 
  897.056,92.6049 899.053,92.4781 901.05,92.3538 903.047,92.2319 905.044,92.1125 907.041,91.9954 909.038,91.8806 911.035,91.768 913.031,91.6577 915.028,91.5496 
  917.025,91.4436 919.022,91.3397 921.019,91.2378 923.016,91.138 925.013,91.0401 927.01,90.9442 929.007,90.8501 931.004,90.7579 933.001,90.6675 934.998,90.5789 
  936.995,90.4921 938.992,90.407 940.988,90.3235 942.985,90.2417 944.982,90.1615 946.979,90.0829 948.976,90.0058 950.973,89.9303 952.97,89.8563 954.967,89.7837 
  956.964,89.7125 958.961,89.6428 960.958,89.5744 962.955,89.5074 964.952,89.4417 966.948,89.3773 968.945,89.3142 970.942,89.2523 972.939,89.1917 974.936,89.1322 
  976.933,89.0739 978.93,89.0168 980.927,88.9608 982.924,88.9059 984.921,88.8521 986.918,88.7993 988.915,88.7476 990.912,88.697 992.909,88.6473 994.905,88.5986 
  996.902,88.5509 998.899,88.5041 1000.9,88.4582 1002.89,88.4132 1004.89,88.3692 1006.89,88.326 1008.88,88.2836 1010.88,88.2421 1012.88,88.2014 1014.87,88.1615 
  1016.87,88.1224 1018.87,88.0841 1020.87,88.0465 1022.86,88.0097 1024.86,87.9736 1026.86,87.9383 1028.85,87.9036 1030.85,87.8696 1032.85,87.8363 1034.84,87.8036 
  1036.84,87.7716 1038.84,87.7402 1040.83,87.7094 1042.83,87.6793 1044.83,87.6497 1046.83,87.6207 1048.82,87.5923 1050.82,87.5645 1052.82,87.5372 1054.81,87.5105 
  1056.81,87.4842 1058.81,87.4585 1060.8,87.4333 1062.8,87.4087 1064.8,87.3844 1066.79,87.3607 1068.79,87.3375 1070.79,87.3147 1072.79,87.2923 1074.78,87.2704 
  1076.78,87.2489 1078.78,87.2279 1080.77,87.2073 1082.77,87.187 1084.77,87.1672 1086.76,87.1478 1088.76,87.1288 1090.76,87.1101 1092.75,87.0918 1094.75,87.0739 
  1096.75,87.0563 1098.75,87.039 1100.74,87.0221 1102.74,87.0056 1104.74,86.9894 1106.73,86.9734 1108.73,86.9579 1110.73,86.9426 1112.72,86.9276 1114.72,86.9129 
  1116.72,86.8985 1118.71,86.8844 1120.71,86.8706 1122.71,86.857 1124.71,86.8437 1126.7,86.8307 1128.7,86.8179 1130.7,86.8054 1132.69,86.7931 1134.69,86.7811 
  1136.69,86.7693 1138.68,86.7578 1140.68,86.7464 1142.68,86.7353 1144.67,86.7245 1146.67,86.7138 1148.67,86.7033 1150.67,86.6931 1152.66,86.683 1154.66,86.6732 
  1156.66,86.6635 1158.65,86.6541 1160.65,86.6448 1162.65,86.6357 1164.64,86.6268 1166.64,86.6181 1168.64,86.6095 1170.64,86.6011 1172.63,86.5929 1174.63,86.5848 
  1176.63,86.5769 1178.62,86.5692 1180.62,86.5616 1182.62,86.5541 1184.61,86.5468 1186.61,86.5397 1188.61,86.5327 1190.6,86.5258 1192.6,86.5191 1194.6,86.5125 
  1196.6,86.506 1198.59,86.4997 1200.59,86.4935 1202.59,86.4874 1204.58,86.4814 1206.58,86.4755 1208.58,86.4698 1210.57,86.4642 1212.57,86.4587 1214.57,86.4532 
  1216.56,86.4479 1218.56,86.4428 1220.56,86.4377 1222.56,86.4327 1224.55,86.4278 1226.55,86.423 1228.55,86.4183 1230.54,86.4137 1232.54,86.4092 1234.54,86.4047 
  1236.53,86.4004 1238.53,86.3962 1240.53,86.392 1242.52,86.3879 1244.52,86.3839 1246.52,86.38 1248.52,86.3761 1250.51,86.3724 1252.51,86.3687 1254.51,86.365 
  1256.5,86.3615 1258.5,86.358 1260.5,86.3546 1262.49,86.3512 1264.49,86.348 1266.49,86.3448 1268.48,86.3416 1270.48,86.3385 1272.48,86.3355 1274.48,86.3325 
  1276.47,86.3296 1278.47,86.3268 1280.47,86.324 1282.46,86.3212 1284.46,86.3186 1286.46,86.3159 1288.45,86.3133 1290.45,86.3108 1292.45,86.3083 1294.44,86.3059 
  1296.44,86.3035 1298.44,86.3012 1300.44,86.2989 1302.43,86.2967 1304.43,86.2945 1306.43,86.2923 1308.42,86.2902 1310.42,86.2881 1312.42,86.2861 1314.41,86.2841 
  1316.41,86.2822 1318.41,86.2803 1320.4,86.2784 1322.4,86.2765 1324.4,86.2747 1326.4,86.273 1328.39,86.2713 1330.39,86.2696 1332.39,86.2679 1334.38,86.2663 
  1336.38,86.2647 1338.38,86.2631 1340.37,86.2616 1342.37,86.2601 1344.37,86.2586 1346.36,86.2572 1348.36,86.2557 1350.36,86.2543 1352.36,86.253 1354.35,86.2517 
  1356.35,86.2503 1358.35,86.2491 1360.34,86.2478 1362.34,86.2466 1364.34,86.2454 1366.33,86.2442 1368.33,86.243 1370.33,86.2419 1372.32,86.2408 1374.32,86.2397 
  1376.32,86.2386 1378.32,86.2376 1380.31,86.2365 1382.31,86.2355 1384.31,86.2346 1386.3,86.2336 1388.3,86.2326 1390.3,86.2317 1392.29,86.2308 1394.29,86.2299 
  1396.29,86.229 1398.28,86.2282 1400.28,86.2273 1402.28,86.2265 1404.28,86.2257 1406.27,86.2249 1408.27,86.2241 1410.27,86.2234 1412.26,86.2226 1414.26,86.2219 
  1416.26,86.2212 1418.25,86.2205 1420.25,86.2198 1422.25,86.2191 1424.24,86.2184 1426.24,86.2178 1428.24,86.2172 1430.24,86.2165 1432.23,86.2159 1434.23,86.2153 
  1436.23,86.2147 1438.22,86.2142 1440.22,86.2136 1442.22,86.213 1444.21,86.2125 1446.21,86.212 1448.21,86.2114 1450.2,86.2109 1452.2,86.2104 1454.2,86.2099 
  1456.2,86.2095 1458.19,86.209 1460.19,86.2085 1462.19,86.2081 1464.18,86.2076 1466.18,86.2072 1468.18,86.2068 1470.17,86.2064 1472.17,86.2059 1474.17,86.2055 
  1476.16,86.2051 1478.16,86.2048 1480.16,86.2044 1482.16,86.204 1484.15,86.2037 1486.15,86.2033 1488.15,86.2029 1490.14,86.2026 1492.14,86.2023 1494.14,86.2019 
  1496.13,86.2016 1498.13,86.2013 1500.13,86.201 1502.12,86.2007 1504.12,86.2004 1506.12,86.2001 1508.12,86.1998 1510.11,86.1995 1512.11,86.1993 1514.11,86.199 
  1516.1,86.1987 1518.1,86.1985 1520.1,86.1982 1522.09,86.198 1524.09,86.1977 1526.09,86.1975 1528.08,86.1972 1530.08,86.197 1532.08,86.1968 1534.08,86.1966 
  1536.07,86.1964 1538.07,86.1961 1540.07,86.1959 1542.06,86.1957 1544.06,86.1955 1546.06,86.1953 1548.05,86.1951 1550.05,86.195 1552.05,86.1948 1554.05,86.1946 
  1556.04,86.1944 1558.04,86.1942 1560.04,86.1941 1562.03,86.1939 1564.03,86.1937 1566.03,86.1936 1568.02,86.1934 1570.02,86.1933 1572.02,86.1931 1574.01,86.193 
  1576.01,86.1928 1578.01,86.1927 1580.01,86.1926 1582,86.1924 1584,86.1923 1586,86.1922 1587.99,86.192 1589.99,86.1919 1591.99,86.1918 1593.98,86.1917 
  1595.98,86.1915 1597.98,86.1914 1599.97,86.1913 1601.97,86.1912 1603.97,86.1911 1605.97,86.191 1607.96,86.1909 1609.96,86.1908 1611.96,86.1907 1613.95,86.1906 
  1615.95,86.1905 1617.95,86.1904 1619.94,86.1903 1621.94,86.1902 1623.94,86.1901 1625.93,86.19 1627.93,86.1899 1629.93,86.1898 1631.93,86.1898 1633.92,86.1897 
  1635.92,86.1896 1637.92,86.1895 1639.91,86.1894 1641.91,86.1894 1643.91,86.1893 1645.9,86.1892 1647.9,86.1892 1649.9,86.1891 1651.89,86.189 1653.89,86.189 
  1655.89,86.1889 1657.89,86.1888 1659.88,86.1888 1661.88,86.1887 1663.88,86.1886 1665.87,86.1886 1667.87,86.1885 1669.87,86.1885 1671.86,86.1884 1673.86,86.1884 
  1675.86,86.1883 1677.85,86.1883 1679.85,86.1882 1681.85,86.1881 1683.85,86.1881 1685.84,86.1881 1687.84,86.188 1689.84,86.188 1691.83,86.1879 1693.83,86.1879 
  1695.83,86.1878 1697.82,86.1878 1699.82,86.1877 1701.82,86.1877 1703.81,86.1877 1705.81,86.1876 1707.81,86.1876 1709.81,86.1875 1711.8,86.1875 1713.8,86.1875 
  1715.8,86.1874 1717.79,86.1874 1719.79,86.1874 1721.79,86.1873 1723.78,86.1873 1725.78,86.1873 1727.78,86.1872 1729.77,86.1872 1731.77,86.1872 1733.77,86.1871 
  1735.77,86.1871 1737.76,86.1871 1739.76,86.1871 1741.76,86.187 1743.75,86.187 1745.75,86.187 1747.75,86.187 1749.74,86.1869 1751.74,86.1869 1753.74,86.1869 
  1755.73,86.1869 1757.73,86.1868 1759.73,86.1868 1761.73,86.1868 1763.72,86.1868 1765.72,86.1867 1767.72,86.1867 1769.71,86.1867 1771.71,86.1867 1773.71,86.1867 
  1775.7,86.1866 1777.7,86.1866 1779.7,86.1866 1781.69,86.1866 1783.69,86.1866 1785.69,86.1865 1787.69,86.1865 1789.68,86.1865 1791.68,86.1865 1793.68,86.1865 
  1795.67,86.1865 1797.67,86.1864 1799.67,86.1864 1801.66,86.1864 1803.66,86.1864 1805.66,86.1864 1807.65,86.1864 1809.65,86.1864 1811.65,86.1863 1813.65,86.1863 
  1815.64,86.1863 1817.64,86.1863 1819.64,86.1863 1821.63,86.1863 1823.63,86.1863 1825.63,86.1863 1827.62,86.1862 1829.62,86.1862 1831.62,86.1862 1833.61,86.1862 
  1835.61,86.1862 1837.61,86.1862 1839.61,86.1862 1841.6,86.1862 1843.6,86.1862 1845.6,86.1861 1847.59,86.1861 1849.59,86.1861 1851.59,86.1861 1853.58,86.1861 
  1855.58,86.1861 1857.58,86.1861 1859.57,86.1861 1861.57,86.1861 1863.57,86.1861 1865.57,86.1861 1867.56,86.1861 1869.56,86.186 1871.56,86.186 1873.55,86.186 
  1875.55,86.186 1877.55,86.186 1879.54,86.186 1881.54,86.186 1883.54,86.186 1885.53,86.186 1887.53,86.186 1889.53,86.186 1891.53,86.186 1893.52,86.186 
  1895.52,86.186 1897.52,86.186 1899.51,86.1859 1901.51,86.1859 1903.51,86.1859 1905.5,86.1859 1907.5,86.1859 1909.5,86.1859 1911.49,86.1859 1913.49,86.1859 
  1915.49,86.1859 1917.49,86.1859 1919.48,86.1859 1921.48,86.1859 1923.48,86.1859 1925.47,86.1859 1927.47,86.1859 1929.47,86.1859 1931.46,86.1859 1933.46,86.1859 
  1935.46,86.1859 1937.46,86.1859 1939.45,86.1859 1941.45,86.1859 1943.45,86.1858 1945.44,86.1858 1947.44,86.1858 1949.44,86.1858 1951.43,86.1858 1953.43,86.1858 
  1955.43,86.1858 1957.42,86.1858 1959.42,86.1858 1961.42,86.1858 1963.42,86.1858 1965.41,86.1858 1967.41,86.1858 1969.41,86.1858 1971.4,86.1858 1973.4,86.1858 
  1975.4,86.1858 1977.39,86.1858 1979.39,86.1858 1981.39,86.1858 1983.38,86.1858 1985.38,86.1858 1987.38,86.1858 1989.38,86.1858 1991.37,86.1858 1993.37,86.1858 
  1995.37,86.1858 1997.36,86.1858 1999.36,86.1858 2001.36,86.1858 2003.35,86.1858 2005.35,86.1858 2007.35,86.1858 2009.34,86.1858 2011.34,86.1858 2013.34,86.1858 
  2015.34,86.1858 2017.33,86.1858 2019.33,86.1858 2021.33,86.1857 2023.32,86.1857 2025.32,86.1857 2027.32,86.1857 2029.31,86.1857 2031.31,86.1857 2033.31,86.1857 
  2035.3,86.1857 2037.3,86.1857 2039.3,86.1857 2041.3,86.1857 2043.29,86.1857 2045.29,86.1857 2047.29,86.1857 2049.28,86.1857 2051.28,86.1857 2053.28,86.1857 
  2055.27,86.1857 2057.27,86.1857 2059.27,86.1857 2061.26,86.1857 2063.26,86.1857 2065.26,86.1857 2067.26,86.1857 2069.25,86.1857 2071.25,86.1857 2073.25,86.1857 
  2075.24,86.1857 2077.24,86.1857 2079.24,86.1857 2081.23,86.1857 2083.23,86.1857 2085.23,86.1857 2087.22,86.1857 2089.22,86.1857 2091.22,86.1857 2093.22,86.1857 
  2095.21,86.1857 2097.21,86.1857 2099.21,86.1857 2101.2,86.1857 2103.2,86.1857 2105.2,86.1857 2107.19,86.1857 2109.19,86.1857 2111.19,86.1857 2113.18,86.1857 
  2115.18,86.1857 2117.18,86.1857 2119.18,86.1857 2121.17,86.1857 2123.17,86.1857 2125.17,86.1857 2127.16,86.1857 2129.16,86.1857 2131.16,86.1857 2133.15,86.1857 
  2135.15,86.1857 2137.15,86.1857 2139.14,86.1857 2141.14,86.1857 2143.14,86.1857 2145.14,86.1857 2147.13,86.1857 2149.13,86.1857 2151.13,86.1857 2153.12,86.1857 
  2155.12,86.1857 2157.12,86.1857 2159.11,86.1857 2161.11,86.1857 2163.11,86.1857 2165.1,86.1857 2167.1,86.1857 2169.1,86.1857 2171.1,86.1857 2173.09,86.1857 
  2175.09,86.1857 2177.09,86.1857 2179.08,86.1857 2181.08,86.1857 2183.08,86.1857 2185.07,86.1857 2187.07,86.1857 2189.07,86.1857 2191.06,86.1857 2193.06,86.1857 
  2195.06,86.1857 2197.06,86.1857 2199.05,86.1857 2201.05,86.1857 2203.05,86.1857 2205.04,86.1857 2207.04,86.1857 2209.04,86.1857 2211.03,86.1857 2213.03,86.1857 
  2215.03,86.1857 2217.02,86.1857 2219.02,86.1857 2221.02,86.1857 2223.02,86.1857 2225.01,86.1857 2227.01,86.1857 2229.01,86.1857 2231,86.1857 2233,86.1857 
  2235,86.1857 2236.99,86.1857 2238.99,86.1857 2240.99,86.1857 2242.98,86.1857 2244.98,86.1857 2246.98,86.1857 2248.98,86.1857 2250.97,86.1857 2252.97,86.1857 
  2254.97,86.1857 2256.96,86.1857 2258.96,86.1857 2260.96,86.1857 2262.95,86.1857 2264.95,86.1857 2266.95,86.1857 2268.94,86.1857 2270.94,86.1857 2272.94,86.1857 
  2274.94,86.1857 2276.93,86.1857 2278.93,86.1857 2280.93,86.1857 2282.92,86.1857 2284.92,86.1857 2286.92,86.1857 2288.91,86.1857 2290.91,86.1857 2292.91,86.1857 
  
  "/>
</svg>
