<?xml version="1.0" encoding="utf-8"?>
<svg xmlns="http://www.w3.org/2000/svg" xmlns:xlink="http://www.w3.org/1999/xlink" width="600" height="400" viewBox="0 0 2400 1600">
<defs>
  <clipPath id="clip300">
    <rect x="0" y="0" width="2400" height="1600"/>
  </clipPath>
</defs>
<path clip-path="url(#clip300)" d="
M0 1600 L2400 1600 L2400 0 L0 0  Z
  " fill="#ffffff" fill-rule="evenodd" fill-opacity="1"/>
<defs>
  <clipPath id="clip301">
    <rect x="480" y="0" width="1681" height="1600"/>
  </clipPath>
</defs>
<path clip-path="url(#clip300)" d="
M174.862 1486.45 L2352.76 1486.45 L2352.76 47.2441 L174.862 47.2441  Z
  " fill="#ffffff" fill-rule="evenodd" fill-opacity="1"/>
<defs>
  <clipPath id="clip302">
    <rect x="174" y="47" width="2179" height="1440"/>
  </clipPath>
</defs>
<polyline clip-path="url(#clip302)" style="stroke:#000000; stroke-width:2; stroke-opacity:0.1; fill:none" points="
  236.501,1486.45 236.501,47.2441 
  "/>
<polyline clip-path="url(#clip302)" style="stroke:#000000; stroke-width:2; stroke-opacity:0.1; fill:none" points="
  750.155,1486.45 750.155,47.2441 
  "/>
<polyline clip-path="url(#clip302)" style="stroke:#000000; stroke-width:2; stroke-opacity:0.1; fill:none" points="
  1263.81,1486.45 1263.81,47.2441 
  "/>
<polyline clip-path="url(#clip302)" style="stroke:#000000; stroke-width:2; stroke-opacity:0.1; fill:none" points="
  1777.46,1486.45 1777.46,47.2441 
  "/>
<polyline clip-path="url(#clip302)" style="stroke:#000000; stroke-width:2; stroke-opacity:0.1; fill:none" points="
  2291.12,1486.45 2291.12,47.2441 
  "/>
<polyline clip-path="url(#clip300)" style="stroke:#000000; stroke-width:4; stroke-opacity:1; fill:none" points="
  174.862,1486.45 2352.76,1486.45 
  "/>
<polyline clip-path="url(#clip300)" style="stroke:#000000; stroke-width:4; stroke-opacity:1; fill:none" points="
  236.501,1486.45 236.501,1469.18 
  "/>
<polyline clip-path="url(#clip300)" style="stroke:#000000; stroke-width:4; stroke-opacity:1; fill:none" points="
  750.155,1486.45 750.155,1469.18 
  "/>
<polyline clip-path="url(#clip300)" style="stroke:#000000; stroke-width:4; stroke-opacity:1; fill:none" points="
  1263.81,1486.45 1263.81,1469.18 
  "/>
<polyline clip-path="url(#clip300)" style="stroke:#000000; stroke-width:4; stroke-opacity:1; fill:none" points="
  1777.46,1486.45 1777.46,1469.18 
  "/>
<polyline clip-path="url(#clip300)" style="stroke:#000000; stroke-width:4; stroke-opacity:1; fill:none" points="
  2291.12,1486.45 2291.12,1469.18 
  "/>
<path clip-path="url(#clip300)" d="M 0 0 M218.017 1515.64 Q214.406 1515.64 212.577 1519.2 Q210.772 1522.75 210.772 1529.87 Q210.772 1536.98 212.577 1540.55 Q214.406 1544.09 218.017 1544.09 Q221.651 1544.09 223.457 1540.55 Q225.285 1536.98 225.285 1529.87 Q225.285 1522.75 223.457 1519.2 Q221.651 1515.64 218.017 1515.64 M218.017 1511.93 Q223.827 1511.93 226.883 1516.54 Q229.961 1521.12 229.961 1529.87 Q229.961 1538.6 226.883 1543.21 Q223.827 1547.79 218.017 1547.79 Q212.207 1547.79 209.128 1543.21 Q206.072 1538.6 206.072 1529.87 Q206.072 1521.12 209.128 1516.54 Q212.207 1511.93 218.017 1511.93 Z" fill="#000000" fill-rule="evenodd" fill-opacity="1" /><path clip-path="url(#clip300)" d="M 0 0 M235.031 1541.24 L239.915 1541.24 L239.915 1547.12 L235.031 1547.12 L235.031 1541.24 Z" fill="#000000" fill-rule="evenodd" fill-opacity="1" /><path clip-path="url(#clip300)" d="M 0 0 M254.984 1515.64 Q251.373 1515.64 249.544 1519.2 Q247.739 1522.75 247.739 1529.87 Q247.739 1536.98 249.544 1540.55 Q251.373 1544.09 254.984 1544.09 Q258.618 1544.09 260.424 1540.55 Q262.253 1536.98 262.253 1529.87 Q262.253 1522.75 260.424 1519.2 Q258.618 1515.64 254.984 1515.64 M254.984 1511.93 Q260.794 1511.93 263.85 1516.54 Q266.929 1521.12 266.929 1529.87 Q266.929 1538.6 263.85 1543.21 Q260.794 1547.79 254.984 1547.79 Q249.174 1547.79 246.095 1543.21 Q243.04 1538.6 243.04 1529.87 Q243.04 1521.12 246.095 1516.54 Q249.174 1511.93 254.984 1511.93 Z" fill="#000000" fill-rule="evenodd" fill-opacity="1" /><path clip-path="url(#clip300)" d="M 0 0 M726.822 1543.18 L743.141 1543.18 L743.141 1547.12 L721.197 1547.12 L721.197 1543.18 Q723.859 1540.43 728.442 1535.8 Q733.048 1531.15 734.229 1529.81 Q736.474 1527.28 737.354 1525.55 Q738.257 1523.79 738.257 1522.1 Q738.257 1519.34 736.312 1517.61 Q734.391 1515.87 731.289 1515.87 Q729.09 1515.87 726.636 1516.63 Q724.206 1517.4 721.428 1518.95 L721.428 1514.23 Q724.252 1513.09 726.706 1512.51 Q729.159 1511.93 731.197 1511.93 Q736.567 1511.93 739.761 1514.62 Q742.956 1517.31 742.956 1521.8 Q742.956 1523.93 742.146 1525.85 Q741.358 1527.74 739.252 1530.34 Q738.673 1531.01 735.571 1534.23 Q732.47 1537.42 726.822 1543.18 Z" fill="#000000" fill-rule="evenodd" fill-opacity="1" /><path clip-path="url(#clip300)" d="M 0 0 M748.21 1541.24 L753.095 1541.24 L753.095 1547.12 L748.21 1547.12 L748.21 1541.24 Z" fill="#000000" fill-rule="evenodd" fill-opacity="1" /><path clip-path="url(#clip300)" d="M 0 0 M758.21 1512.56 L776.567 1512.56 L776.567 1516.5 L762.493 1516.5 L762.493 1524.97 Q763.511 1524.62 764.53 1524.46 Q765.548 1524.27 766.567 1524.27 Q772.354 1524.27 775.733 1527.44 Q779.113 1530.62 779.113 1536.03 Q779.113 1541.61 775.641 1544.71 Q772.169 1547.79 765.849 1547.79 Q763.673 1547.79 761.405 1547.42 Q759.159 1547.05 756.752 1546.31 L756.752 1541.61 Q758.835 1542.74 761.057 1543.3 Q763.28 1543.86 765.757 1543.86 Q769.761 1543.86 772.099 1541.75 Q774.437 1539.64 774.437 1536.03 Q774.437 1532.42 772.099 1530.31 Q769.761 1528.21 765.757 1528.21 Q763.882 1528.21 762.007 1528.62 Q760.155 1529.04 758.21 1529.92 L758.21 1512.56 Z" fill="#000000" fill-rule="evenodd" fill-opacity="1" /><path clip-path="url(#clip300)" d="M 0 0 M1235.6 1512.56 L1253.96 1512.56 L1253.96 1516.5 L1239.89 1516.5 L1239.89 1524.97 Q1240.9 1524.62 1241.92 1524.46 Q1242.94 1524.27 1243.96 1524.27 Q1249.75 1524.27 1253.13 1527.44 Q1256.51 1530.62 1256.51 1536.03 Q1256.51 1541.61 1253.03 1544.71 Q1249.56 1547.79 1243.24 1547.79 Q1241.07 1547.79 1238.8 1547.42 Q1236.55 1547.05 1234.14 1546.31 L1234.14 1541.61 Q1236.23 1542.74 1238.45 1543.3 Q1240.67 1543.86 1243.15 1543.86 Q1247.15 1543.86 1249.49 1541.75 Q1251.83 1539.64 1251.83 1536.03 Q1251.83 1532.42 1249.49 1530.31 Q1247.15 1528.21 1243.15 1528.21 Q1241.27 1528.21 1239.4 1528.62 Q1237.55 1529.04 1235.6 1529.92 L1235.6 1512.56 Z" fill="#000000" fill-rule="evenodd" fill-opacity="1" /><path clip-path="url(#clip300)" d="M 0 0 M1261.58 1541.24 L1266.46 1541.24 L1266.46 1547.12 L1261.58 1547.12 L1261.58 1541.24 Z" fill="#000000" fill-rule="evenodd" fill-opacity="1" /><path clip-path="url(#clip300)" d="M 0 0 M1281.53 1515.64 Q1277.92 1515.64 1276.09 1519.2 Q1274.28 1522.75 1274.28 1529.87 Q1274.28 1536.98 1276.09 1540.55 Q1277.92 1544.09 1281.53 1544.09 Q1285.16 1544.09 1286.97 1540.55 Q1288.8 1536.98 1288.8 1529.87 Q1288.8 1522.75 1286.97 1519.2 Q1285.16 1515.64 1281.53 1515.64 M1281.53 1511.93 Q1287.34 1511.93 1290.39 1516.54 Q1293.47 1521.12 1293.47 1529.87 Q1293.47 1538.6 1290.39 1543.21 Q1287.34 1547.79 1281.53 1547.79 Q1275.72 1547.79 1272.64 1543.21 Q1269.58 1538.6 1269.58 1529.87 Q1269.58 1521.12 1272.64 1516.54 Q1275.72 1511.93 1281.53 1511.93 Z" fill="#000000" fill-rule="evenodd" fill-opacity="1" /><path clip-path="url(#clip300)" d="M 0 0 M1748.37 1512.56 L1770.59 1512.56 L1770.59 1514.55 L1758.04 1547.12 L1753.16 1547.12 L1764.96 1516.5 L1748.37 1516.5 L1748.37 1512.56 Z" fill="#000000" fill-rule="evenodd" fill-opacity="1" /><path clip-path="url(#clip300)" d="M 0 0 M1775.66 1541.24 L1780.54 1541.24 L1780.54 1547.12 L1775.66 1547.12 L1775.66 1541.24 Z" fill="#000000" fill-rule="evenodd" fill-opacity="1" /><path clip-path="url(#clip300)" d="M 0 0 M1785.66 1512.56 L1804.01 1512.56 L1804.01 1516.5 L1789.94 1516.5 L1789.94 1524.97 Q1790.96 1524.62 1791.98 1524.46 Q1793 1524.27 1794.01 1524.27 Q1799.8 1524.27 1803.18 1527.44 Q1806.56 1530.62 1806.56 1536.03 Q1806.56 1541.61 1803.09 1544.71 Q1799.62 1547.79 1793.3 1547.79 Q1791.12 1547.79 1788.85 1547.42 Q1786.61 1547.05 1784.2 1546.31 L1784.2 1541.61 Q1786.28 1542.74 1788.5 1543.3 Q1790.73 1543.86 1793.2 1543.86 Q1797.21 1543.86 1799.55 1541.75 Q1801.88 1539.64 1801.88 1536.03 Q1801.88 1532.42 1799.55 1530.31 Q1797.21 1528.21 1793.2 1528.21 Q1791.33 1528.21 1789.45 1528.62 Q1787.6 1529.04 1785.66 1529.92 L1785.66 1512.56 Z" fill="#000000" fill-rule="evenodd" fill-opacity="1" /><path clip-path="url(#clip300)" d="M 0 0 M2249.51 1543.18 L2257.15 1543.18 L2257.15 1516.82 L2248.84 1518.49 L2248.84 1514.23 L2257.1 1512.56 L2261.78 1512.56 L2261.78 1543.18 L2269.42 1543.18 L2269.42 1547.12 L2249.51 1547.12 L2249.51 1543.18 Z" fill="#000000" fill-rule="evenodd" fill-opacity="1" /><path clip-path="url(#clip300)" d="M 0 0 M2284.49 1515.64 Q2280.87 1515.64 2279.05 1519.2 Q2277.24 1522.75 2277.24 1529.87 Q2277.24 1536.98 2279.05 1540.55 Q2280.87 1544.09 2284.49 1544.09 Q2288.12 1544.09 2289.93 1540.55 Q2291.75 1536.98 2291.75 1529.87 Q2291.75 1522.75 2289.93 1519.2 Q2288.12 1515.64 2284.49 1515.64 M2284.49 1511.93 Q2290.3 1511.93 2293.35 1516.54 Q2296.43 1521.12 2296.43 1529.87 Q2296.43 1538.6 2293.35 1543.21 Q2290.3 1547.79 2284.49 1547.79 Q2278.68 1547.79 2275.6 1543.21 Q2272.54 1538.6 2272.54 1529.87 Q2272.54 1521.12 2275.6 1516.54 Q2278.68 1511.93 2284.49 1511.93 Z" fill="#000000" fill-rule="evenodd" fill-opacity="1" /><path clip-path="url(#clip300)" d="M 0 0 M2301.5 1541.24 L2306.38 1541.24 L2306.38 1547.12 L2301.5 1547.12 L2301.5 1541.24 Z" fill="#000000" fill-rule="evenodd" fill-opacity="1" /><path clip-path="url(#clip300)" d="M 0 0 M2321.45 1515.64 Q2317.84 1515.64 2316.01 1519.2 Q2314.21 1522.75 2314.21 1529.87 Q2314.21 1536.98 2316.01 1540.55 Q2317.84 1544.09 2321.45 1544.09 Q2325.09 1544.09 2326.89 1540.55 Q2328.72 1536.98 2328.72 1529.87 Q2328.72 1522.75 2326.89 1519.2 Q2325.09 1515.64 2321.45 1515.64 M2321.45 1511.93 Q2327.26 1511.93 2330.32 1516.54 Q2333.4 1521.12 2333.4 1529.87 Q2333.4 1538.6 2330.32 1543.21 Q2327.26 1547.79 2321.45 1547.79 Q2315.64 1547.79 2312.56 1543.21 Q2309.51 1538.6 2309.51 1529.87 Q2309.51 1521.12 2312.56 1516.54 Q2315.64 1511.93 2321.45 1511.93 Z" fill="#000000" fill-rule="evenodd" fill-opacity="1" /><polyline clip-path="url(#clip302)" style="stroke:#000000; stroke-width:2; stroke-opacity:0.1; fill:none" points="
  174.862,1322.12 2352.76,1322.12 
  "/>
<polyline clip-path="url(#clip302)" style="stroke:#000000; stroke-width:2; stroke-opacity:0.1; fill:none" points="
  174.862,1013.58 2352.76,1013.58 
  "/>
<polyline clip-path="url(#clip302)" style="stroke:#000000; stroke-width:2; stroke-opacity:0.1; fill:none" points="
  174.862,705.048 2352.76,705.048 
  "/>
<polyline clip-path="url(#clip302)" style="stroke:#000000; stroke-width:2; stroke-opacity:0.1; fill:none" points="
  174.862,396.512 2352.76,396.512 
  "/>
<polyline clip-path="url(#clip302)" style="stroke:#000000; stroke-width:2; stroke-opacity:0.1; fill:none" points="
  174.862,87.9764 2352.76,87.9764 
  "/>
<polyline clip-path="url(#clip300)" style="stroke:#000000; stroke-width:4; stroke-opacity:1; fill:none" points="
  174.862,1486.45 174.862,47.2441 
  "/>
<polyline clip-path="url(#clip300)" style="stroke:#000000; stroke-width:4; stroke-opacity:1; fill:none" points="
  174.862,1322.12 200.997,1322.12 
  "/>
<polyline clip-path="url(#clip300)" style="stroke:#000000; stroke-width:4; stroke-opacity:1; fill:none" points="
  174.862,1013.58 200.997,1013.58 
  "/>
<polyline clip-path="url(#clip300)" style="stroke:#000000; stroke-width:4; stroke-opacity:1; fill:none" points="
  174.862,705.048 200.997,705.048 
  "/>
<polyline clip-path="url(#clip300)" style="stroke:#000000; stroke-width:4; stroke-opacity:1; fill:none" points="
  174.862,396.512 200.997,396.512 
  "/>
<polyline clip-path="url(#clip300)" style="stroke:#000000; stroke-width:4; stroke-opacity:1; fill:none" points="
  174.862,87.9764 200.997,87.9764 
  "/>
<path clip-path="url(#clip300)" d="M 0 0 M62.9365 1307.92 Q59.3254 1307.92 57.4967 1311.48 Q55.6912 1315.03 55.6912 1322.16 Q55.6912 1329.26 57.4967 1332.83 Q59.3254 1336.37 62.9365 1336.37 Q66.5707 1336.37 68.3763 1332.83 Q70.205 1329.26 70.205 1322.16 Q70.205 1315.03 68.3763 1311.48 Q66.5707 1307.92 62.9365 1307.92 M62.9365 1304.22 Q68.7467 1304.22 71.8022 1308.82 Q74.8809 1313.41 74.8809 1322.16 Q74.8809 1330.88 71.8022 1335.49 Q68.7467 1340.07 62.9365 1340.07 Q57.1264 1340.07 54.0477 1335.49 Q50.9921 1330.88 50.9921 1322.16 Q50.9921 1313.41 54.0477 1308.82 Q57.1264 1304.22 62.9365 1304.22 Z" fill="#000000" fill-rule="evenodd" fill-opacity="1" /><path clip-path="url(#clip300)" d="M 0 0 M79.9503 1333.52 L84.8345 1333.52 L84.8345 1339.4 L79.9503 1339.4 L79.9503 1333.52 Z" fill="#000000" fill-rule="evenodd" fill-opacity="1" /><path clip-path="url(#clip300)" d="M 0 0 M99.9039 1307.92 Q96.2928 1307.92 94.4641 1311.48 Q92.6586 1315.03 92.6586 1322.16 Q92.6586 1329.26 94.4641 1332.83 Q96.2928 1336.37 99.9039 1336.37 Q103.538 1336.37 105.344 1332.83 Q107.172 1329.26 107.172 1322.16 Q107.172 1315.03 105.344 1311.48 Q103.538 1307.92 99.9039 1307.92 M99.9039 1304.22 Q105.714 1304.22 108.77 1308.82 Q111.848 1313.41 111.848 1322.16 Q111.848 1330.88 108.77 1335.49 Q105.714 1340.07 99.9039 1340.07 Q94.0937 1340.07 91.0151 1335.49 Q87.9595 1330.88 87.9595 1322.16 Q87.9595 1313.41 91.0151 1308.82 Q94.0937 1304.22 99.9039 1304.22 Z" fill="#000000" fill-rule="evenodd" fill-opacity="1" /><path clip-path="url(#clip300)" d="M 0 0 M126.918 1307.92 Q123.307 1307.92 121.478 1311.48 Q119.672 1315.03 119.672 1322.16 Q119.672 1329.26 121.478 1332.83 Q123.307 1336.37 126.918 1336.37 Q130.552 1336.37 132.357 1332.83 Q134.186 1329.26 134.186 1322.16 Q134.186 1315.03 132.357 1311.48 Q130.552 1307.92 126.918 1307.92 M126.918 1304.22 Q132.728 1304.22 135.783 1308.82 Q138.862 1313.41 138.862 1322.16 Q138.862 1330.88 135.783 1335.49 Q132.728 1340.07 126.918 1340.07 Q121.107 1340.07 118.029 1335.49 Q114.973 1330.88 114.973 1322.16 Q114.973 1313.41 118.029 1308.82 Q121.107 1304.22 126.918 1304.22 Z" fill="#000000" fill-rule="evenodd" fill-opacity="1" /><path clip-path="url(#clip300)" d="M 0 0 M65.5291 999.383 Q61.918 999.383 60.0893 1002.95 Q58.2838 1006.49 58.2838 1013.62 Q58.2838 1020.73 60.0893 1024.29 Q61.918 1027.83 65.5291 1027.83 Q69.1633 1027.83 70.9689 1024.29 Q72.7976 1020.73 72.7976 1013.62 Q72.7976 1006.49 70.9689 1002.95 Q69.1633 999.383 65.5291 999.383 M65.5291 995.679 Q71.3392 995.679 74.3948 1000.29 Q77.4735 1004.87 77.4735 1013.62 Q77.4735 1022.35 74.3948 1026.95 Q71.3392 1031.54 65.5291 1031.54 Q59.7189 1031.54 56.6402 1026.95 Q53.5847 1022.35 53.5847 1013.62 Q53.5847 1004.87 56.6402 1000.29 Q59.7189 995.679 65.5291 995.679 Z" fill="#000000" fill-rule="evenodd" fill-opacity="1" /><path clip-path="url(#clip300)" d="M 0 0 M82.5429 1024.98 L87.4271 1024.98 L87.4271 1030.86 L82.5429 1030.86 L82.5429 1024.98 Z" fill="#000000" fill-rule="evenodd" fill-opacity="1" /><path clip-path="url(#clip300)" d="M 0 0 M96.5243 1026.93 L112.844 1026.93 L112.844 1030.86 L90.8993 1030.86 L90.8993 1026.93 Q93.5613 1024.17 98.1447 1019.55 Q102.751 1014.89 103.932 1013.55 Q106.177 1011.03 107.057 1009.29 Q107.959 1007.53 107.959 1005.84 Q107.959 1003.09 106.015 1001.35 Q104.094 999.615 100.992 999.615 Q98.7928 999.615 96.3391 1000.38 Q93.9086 1001.14 91.1308 1002.69 L91.1308 997.971 Q93.9549 996.837 96.4085 996.258 Q98.8622 995.679 100.899 995.679 Q106.27 995.679 109.464 998.365 Q112.658 1001.05 112.658 1005.54 Q112.658 1007.67 111.848 1009.59 Q111.061 1011.49 108.955 1014.08 Q108.376 1014.75 105.274 1017.97 Q102.172 1021.17 96.5243 1026.93 Z" fill="#000000" fill-rule="evenodd" fill-opacity="1" /><path clip-path="url(#clip300)" d="M 0 0 M117.959 996.304 L136.316 996.304 L136.316 1000.24 L122.242 1000.24 L122.242 1008.71 Q123.26 1008.36 124.279 1008.2 Q125.297 1008.02 126.316 1008.02 Q132.103 1008.02 135.482 1011.19 Q138.862 1014.36 138.862 1019.78 Q138.862 1025.36 135.39 1028.46 Q131.918 1031.54 125.598 1031.54 Q123.422 1031.54 121.154 1031.17 Q118.908 1030.8 116.501 1030.05 L116.501 1025.36 Q118.584 1026.49 120.807 1027.05 Q123.029 1027.6 125.506 1027.6 Q129.51 1027.6 131.848 1025.49 Q134.186 1023.39 134.186 1019.78 Q134.186 1016.17 131.848 1014.06 Q129.51 1011.95 125.506 1011.95 Q123.631 1011.95 121.756 1012.37 Q119.904 1012.79 117.959 1013.67 L117.959 996.304 Z" fill="#000000" fill-rule="evenodd" fill-opacity="1" /><path clip-path="url(#clip300)" d="M 0 0 M63.9319 690.847 Q60.3208 690.847 58.4921 694.412 Q56.6865 697.954 56.6865 705.083 Q56.6865 712.19 58.4921 715.754 Q60.3208 719.296 63.9319 719.296 Q67.5661 719.296 69.3717 715.754 Q71.2004 712.19 71.2004 705.083 Q71.2004 697.954 69.3717 694.412 Q67.5661 690.847 63.9319 690.847 M63.9319 687.143 Q69.742 687.143 72.7976 691.75 Q75.8763 696.333 75.8763 705.083 Q75.8763 713.81 72.7976 718.416 Q69.742 723 63.9319 723 Q58.1217 723 55.043 718.416 Q51.9875 713.81 51.9875 705.083 Q51.9875 696.333 55.043 691.75 Q58.1217 687.143 63.9319 687.143 Z" fill="#000000" fill-rule="evenodd" fill-opacity="1" /><path clip-path="url(#clip300)" d="M 0 0 M80.9457 716.449 L85.8299 716.449 L85.8299 722.328 L80.9457 722.328 L80.9457 716.449 Z" fill="#000000" fill-rule="evenodd" fill-opacity="1" /><path clip-path="url(#clip300)" d="M 0 0 M90.9456 687.768 L109.302 687.768 L109.302 691.704 L95.228 691.704 L95.228 700.176 Q96.2465 699.829 97.265 699.667 Q98.2835 699.481 99.3021 699.481 Q105.089 699.481 108.469 702.653 Q111.848 705.824 111.848 711.241 Q111.848 716.819 108.376 719.921 Q104.904 723 98.5845 723 Q96.4085 723 94.14 722.629 Q91.8947 722.259 89.4873 721.518 L89.4873 716.819 Q91.5706 717.953 93.7928 718.509 Q96.015 719.065 98.4919 719.065 Q102.496 719.065 104.834 716.958 Q107.172 714.852 107.172 711.241 Q107.172 707.629 104.834 705.523 Q102.496 703.416 98.4919 703.416 Q96.6169 703.416 94.7419 703.833 Q92.89 704.25 90.9456 705.129 L90.9456 687.768 Z" fill="#000000" fill-rule="evenodd" fill-opacity="1" /><path clip-path="url(#clip300)" d="M 0 0 M126.918 690.847 Q123.307 690.847 121.478 694.412 Q119.672 697.954 119.672 705.083 Q119.672 712.19 121.478 715.754 Q123.307 719.296 126.918 719.296 Q130.552 719.296 132.357 715.754 Q134.186 712.19 134.186 705.083 Q134.186 697.954 132.357 694.412 Q130.552 690.847 126.918 690.847 M126.918 687.143 Q132.728 687.143 135.783 691.75 Q138.862 696.333 138.862 705.083 Q138.862 713.81 135.783 718.416 Q132.728 723 126.918 723 Q121.107 723 118.029 718.416 Q114.973 713.81 114.973 705.083 Q114.973 696.333 118.029 691.75 Q121.107 687.143 126.918 687.143 Z" fill="#000000" fill-rule="evenodd" fill-opacity="1" /><path clip-path="url(#clip300)" d="M 0 0 M64.8346 382.311 Q61.2236 382.311 59.3949 385.876 Q57.5893 389.418 57.5893 396.547 Q57.5893 403.654 59.3949 407.218 Q61.2236 410.76 64.8346 410.76 Q68.4689 410.76 70.2744 407.218 Q72.1031 403.654 72.1031 396.547 Q72.1031 389.418 70.2744 385.876 Q68.4689 382.311 64.8346 382.311 M64.8346 378.607 Q70.6448 378.607 73.7003 383.214 Q76.779 387.797 76.779 396.547 Q76.779 405.274 73.7003 409.88 Q70.6448 414.464 64.8346 414.464 Q59.0245 414.464 55.9458 409.88 Q52.8903 405.274 52.8903 396.547 Q52.8903 387.797 55.9458 383.214 Q59.0245 378.607 64.8346 378.607 Z" fill="#000000" fill-rule="evenodd" fill-opacity="1" /><path clip-path="url(#clip300)" d="M 0 0 M81.8484 407.913 L86.7327 407.913 L86.7327 413.792 L81.8484 413.792 L81.8484 407.913 Z" fill="#000000" fill-rule="evenodd" fill-opacity="1" /><path clip-path="url(#clip300)" d="M 0 0 M90.6215 379.232 L112.844 379.232 L112.844 381.223 L100.297 413.792 L95.4132 413.792 L107.219 383.168 L90.6215 383.168 L90.6215 379.232 Z" fill="#000000" fill-rule="evenodd" fill-opacity="1" /><path clip-path="url(#clip300)" d="M 0 0 M117.959 379.232 L136.316 379.232 L136.316 383.168 L122.242 383.168 L122.242 391.64 Q123.26 391.293 124.279 391.13 Q125.297 390.945 126.316 390.945 Q132.103 390.945 135.482 394.117 Q138.862 397.288 138.862 402.704 Q138.862 408.283 135.39 411.385 Q131.918 414.464 125.598 414.464 Q123.422 414.464 121.154 414.093 Q118.908 413.723 116.501 412.982 L116.501 408.283 Q118.584 409.417 120.807 409.973 Q123.029 410.529 125.506 410.529 Q129.51 410.529 131.848 408.422 Q134.186 406.316 134.186 402.704 Q134.186 399.093 131.848 396.987 Q129.51 394.88 125.506 394.88 Q123.631 394.88 121.756 395.297 Q119.904 395.714 117.959 396.593 L117.959 379.232 Z" fill="#000000" fill-rule="evenodd" fill-opacity="1" /><path clip-path="url(#clip300)" d="M 0 0 M54.9736 101.321 L62.6124 101.321 L62.6124 74.9556 L54.3023 76.6223 L54.3023 72.363 L62.5661 70.6964 L67.242 70.6964 L67.242 101.321 L74.8809 101.321 L74.8809 105.256 L54.9736 105.256 L54.9736 101.321 Z" fill="#000000" fill-rule="evenodd" fill-opacity="1" /><path clip-path="url(#clip300)" d="M 0 0 M79.9503 99.3768 L84.8345 99.3768 L84.8345 105.256 L79.9503 105.256 L79.9503 99.3768 Z" fill="#000000" fill-rule="evenodd" fill-opacity="1" /><path clip-path="url(#clip300)" d="M 0 0 M99.9039 73.775 Q96.2928 73.775 94.4641 77.3398 Q92.6586 80.8815 92.6586 88.0111 Q92.6586 95.1175 94.4641 98.6823 Q96.2928 102.224 99.9039 102.224 Q103.538 102.224 105.344 98.6823 Q107.172 95.1175 107.172 88.0111 Q107.172 80.8815 105.344 77.3398 Q103.538 73.775 99.9039 73.775 M99.9039 70.0714 Q105.714 70.0714 108.77 74.6778 Q111.848 79.2611 111.848 88.0111 Q111.848 96.7379 108.77 101.344 Q105.714 105.928 99.9039 105.928 Q94.0937 105.928 91.0151 101.344 Q87.9595 96.7379 87.9595 88.0111 Q87.9595 79.2611 91.0151 74.6778 Q94.0937 70.0714 99.9039 70.0714 Z" fill="#000000" fill-rule="evenodd" fill-opacity="1" /><path clip-path="url(#clip300)" d="M 0 0 M126.918 73.775 Q123.307 73.775 121.478 77.3398 Q119.672 80.8815 119.672 88.0111 Q119.672 95.1175 121.478 98.6823 Q123.307 102.224 126.918 102.224 Q130.552 102.224 132.357 98.6823 Q134.186 95.1175 134.186 88.0111 Q134.186 80.8815 132.357 77.3398 Q130.552 73.775 126.918 73.775 M126.918 70.0714 Q132.728 70.0714 135.783 74.6778 Q138.862 79.2611 138.862 88.0111 Q138.862 96.7379 135.783 101.344 Q132.728 105.928 126.918 105.928 Q121.107 105.928 118.029 101.344 Q114.973 96.7379 114.973 88.0111 Q114.973 79.2611 118.029 74.6778 Q121.107 70.0714 126.918 70.0714 Z" fill="#000000" fill-rule="evenodd" fill-opacity="1" /><path clip-path="url(#clip302)" d="
M242.52 1162.37 L236.501 1162.37 L236.501 1445.72 L242.52 1445.72 L242.52 1162.37 L242.52 1162.37  Z
  " fill="#009af9" fill-rule="evenodd" fill-opacity="0.2"/>
<polyline clip-path="url(#clip302)" style="stroke:#000000; stroke-width:4; stroke-opacity:0.2; fill:none" points="
  242.52,1162.37 236.501,1162.37 236.501,1445.72 242.52,1445.72 242.52,1162.37 
  "/>
<path clip-path="url(#clip302)" d="
M248.551 1126.29 L242.52 1126.29 L242.52 1409.49 L248.551 1409.49 L248.551 1126.29 L248.551 1126.29  Z
  " fill="#009af9" fill-rule="evenodd" fill-opacity="0.2"/>
<polyline clip-path="url(#clip302)" style="stroke:#000000; stroke-width:4; stroke-opacity:0.2; fill:none" points="
  248.551,1126.29 242.52,1126.29 242.52,1409.49 248.551,1409.49 248.551,1126.29 
  "/>
<path clip-path="url(#clip302)" d="
M254.614 1090.35 L248.551 1090.35 L248.551 1373.06 L254.614 1373.06 L254.614 1090.35 L254.614 1090.35  Z
  " fill="#009af9" fill-rule="evenodd" fill-opacity="0.2"/>
<polyline clip-path="url(#clip302)" style="stroke:#000000; stroke-width:4; stroke-opacity:0.2; fill:none" points="
  254.614,1090.35 248.551,1090.35 248.551,1373.06 254.614,1373.06 254.614,1090.35 
  "/>
<path clip-path="url(#clip302)" d="
M260.735 1054.48 L254.614 1054.48 L254.614 1336.34 L260.735 1336.34 L260.735 1054.48 L260.735 1054.48  Z
  " fill="#009af9" fill-rule="evenodd" fill-opacity="0.2"/>
<polyline clip-path="url(#clip302)" style="stroke:#000000; stroke-width:4; stroke-opacity:0.2; fill:none" points="
  260.735,1054.48 254.614,1054.48 254.614,1336.34 260.735,1336.34 260.735,1054.48 
  "/>
<path clip-path="url(#clip302)" d="
M266.941 1018.56 L260.735 1018.56 L260.735 1299.25 L266.941 1299.25 L266.941 1018.56 L266.941 1018.56  Z
  " fill="#009af9" fill-rule="evenodd" fill-opacity="0.2"/>
<polyline clip-path="url(#clip302)" style="stroke:#000000; stroke-width:4; stroke-opacity:0.2; fill:none" points="
  266.941,1018.56 260.735,1018.56 260.735,1299.25 266.941,1299.25 266.941,1018.56 
  "/>
<path clip-path="url(#clip302)" d="
M273.27 982.487 L266.941 982.487 L266.941 1261.69 L273.27 1261.69 L273.27 982.487 L273.27 982.487  Z
  " fill="#009af9" fill-rule="evenodd" fill-opacity="0.2"/>
<polyline clip-path="url(#clip302)" style="stroke:#000000; stroke-width:4; stroke-opacity:0.2; fill:none" points="
  273.27,982.487 266.941,982.487 266.941,1261.69 273.27,1261.69 273.27,982.487 
  "/>
<path clip-path="url(#clip302)" d="
M279.769 946.054 L273.27 946.054 L273.27 1223.52 L279.769 1223.52 L279.769 946.054 L279.769 946.054  Z
  " fill="#009af9" fill-rule="evenodd" fill-opacity="0.2"/>
<polyline clip-path="url(#clip302)" style="stroke:#000000; stroke-width:4; stroke-opacity:0.2; fill:none" points="
  279.769,946.054 273.27,946.054 273.27,1223.52 279.769,1223.52 279.769,946.054 
  "/>
<path clip-path="url(#clip302)" d="
M286.515 908.946 L279.769 908.946 L279.769 1184.53 L286.515 1184.53 L286.515 908.946 L286.515 908.946  Z
  " fill="#009af9" fill-rule="evenodd" fill-opacity="0.2"/>
<polyline clip-path="url(#clip302)" style="stroke:#000000; stroke-width:4; stroke-opacity:0.2; fill:none" points="
  286.515,908.946 279.769,908.946 279.769,1184.53 286.515,1184.53 286.515,908.946 
  "/>
<path clip-path="url(#clip302)" d="
M293.263 872.729 L286.515 872.729 L286.515 1144.34 L293.263 1144.34 L293.263 872.729 L293.263 872.729  Z
  " fill="#009af9" fill-rule="evenodd" fill-opacity="0.2"/>
<polyline clip-path="url(#clip302)" style="stroke:#000000; stroke-width:4; stroke-opacity:0.2; fill:none" points="
  293.263,872.729 286.515,872.729 286.515,1144.34 293.263,1144.34 293.263,872.729 
  "/>
<path clip-path="url(#clip302)" d="
M300.023 837.32 L293.263 837.32 L293.263 1104.53 L300.023 1104.53 L300.023 837.32 L300.023 837.32  Z
  " fill="#009af9" fill-rule="evenodd" fill-opacity="0.2"/>
<polyline clip-path="url(#clip302)" style="stroke:#000000; stroke-width:4; stroke-opacity:0.2; fill:none" points="
  300.023,837.32 293.263,837.32 293.263,1104.53 300.023,1104.53 300.023,837.32 
  "/>
<path clip-path="url(#clip302)" d="
M306.831 802.576 L300.023 802.576 L300.023 1065.12 L306.831 1065.12 L306.831 802.576 L306.831 802.576  Z
  " fill="#009af9" fill-rule="evenodd" fill-opacity="0.2"/>
<polyline clip-path="url(#clip302)" style="stroke:#000000; stroke-width:4; stroke-opacity:0.2; fill:none" points="
  306.831,802.576 300.023,802.576 300.023,1065.12 306.831,1065.12 306.831,802.576 
  "/>
<path clip-path="url(#clip302)" d="
M313.726 768.369 L306.831 768.369 L306.831 1025.98 L313.726 1025.98 L313.726 768.369 L313.726 768.369  Z
  " fill="#009af9" fill-rule="evenodd" fill-opacity="0.2"/>
<polyline clip-path="url(#clip302)" style="stroke:#000000; stroke-width:4; stroke-opacity:0.2; fill:none" points="
  313.726,768.369 306.831,768.369 306.831,1025.98 313.726,1025.98 313.726,768.369 
  "/>
<path clip-path="url(#clip302)" d="
M320.75 734.558 L313.726 734.558 L313.726 987 L320.75 987 L320.75 734.558 L320.75 734.558  Z
  " fill="#009af9" fill-rule="evenodd" fill-opacity="0.2"/>
<polyline clip-path="url(#clip302)" style="stroke:#000000; stroke-width:4; stroke-opacity:0.2; fill:none" points="
  320.75,734.558 313.726,734.558 313.726,987 320.75,987 320.75,734.558 
  "/>
<path clip-path="url(#clip302)" d="
M327.746 702.066 L320.75 702.066 L320.75 948 L327.746 948 L327.746 702.066 L327.746 702.066  Z
  " fill="#009af9" fill-rule="evenodd" fill-opacity="0.2"/>
<polyline clip-path="url(#clip302)" style="stroke:#000000; stroke-width:4; stroke-opacity:0.2; fill:none" points="
  327.746,702.066 320.75,702.066 320.75,948 327.746,948 327.746,702.066 
  "/>
<path clip-path="url(#clip302)" d="
M334.526 671.757 L327.746 671.757 L327.746 909.936 L334.526 909.936 L334.526 671.757 L334.526 671.757  Z
  " fill="#009af9" fill-rule="evenodd" fill-opacity="0.2"/>
<polyline clip-path="url(#clip302)" style="stroke:#000000; stroke-width:4; stroke-opacity:0.2; fill:none" points="
  334.526,671.757 327.746,671.757 327.746,909.936 334.526,909.936 334.526,671.757 
  "/>
<path clip-path="url(#clip302)" d="
M341.176 643.025 L334.526 643.025 L334.526 873.89 L341.176 873.89 L341.176 643.025 L341.176 643.025  Z
  " fill="#009af9" fill-rule="evenodd" fill-opacity="0.2"/>
<polyline clip-path="url(#clip302)" style="stroke:#000000; stroke-width:4; stroke-opacity:0.2; fill:none" points="
  341.176,643.025 334.526,643.025 334.526,873.89 341.176,873.89 341.176,643.025 
  "/>
<path clip-path="url(#clip302)" d="
M347.749 615.614 L341.176 615.614 L341.176 839.384 L347.749 839.384 L347.749 615.614 L347.749 615.614  Z
  " fill="#009af9" fill-rule="evenodd" fill-opacity="0.2"/>
<polyline clip-path="url(#clip302)" style="stroke:#000000; stroke-width:4; stroke-opacity:0.2; fill:none" points="
  347.749,615.614 341.176,615.614 341.176,839.384 347.749,839.384 347.749,615.614 
  "/>
<path clip-path="url(#clip302)" d="
M354.281 589.353 L347.749 589.353 L347.749 806.142 L354.281 806.142 L354.281 589.353 L354.281 589.353  Z
  " fill="#009af9" fill-rule="evenodd" fill-opacity="0.2"/>
<polyline clip-path="url(#clip302)" style="stroke:#000000; stroke-width:4; stroke-opacity:0.2; fill:none" points="
  354.281,589.353 347.749,589.353 347.749,806.142 354.281,806.142 354.281,589.353 
  "/>
<path clip-path="url(#clip302)" d="
M360.802 564.116 L354.281 564.116 L354.281 773.99 L360.802 773.99 L360.802 564.116 L360.802 564.116  Z
  " fill="#009af9" fill-rule="evenodd" fill-opacity="0.2"/>
<polyline clip-path="url(#clip302)" style="stroke:#000000; stroke-width:4; stroke-opacity:0.2; fill:none" points="
  360.802,564.116 354.281,564.116 354.281,773.99 360.802,773.99 360.802,564.116 
  "/>
<path clip-path="url(#clip302)" d="
M367.336 539.807 L360.802 539.807 L360.802 742.804 L367.336 742.804 L367.336 539.807 L367.336 539.807  Z
  " fill="#009af9" fill-rule="evenodd" fill-opacity="0.2"/>
<polyline clip-path="url(#clip302)" style="stroke:#000000; stroke-width:4; stroke-opacity:0.2; fill:none" points="
  367.336,539.807 360.802,539.807 360.802,742.804 367.336,742.804 367.336,539.807 
  "/>
<path clip-path="url(#clip302)" d="
M373.905 516.347 L367.336 516.347 L367.336 712.49 L373.905 712.49 L373.905 516.347 L373.905 516.347  Z
  " fill="#009af9" fill-rule="evenodd" fill-opacity="0.2"/>
<polyline clip-path="url(#clip302)" style="stroke:#000000; stroke-width:4; stroke-opacity:0.2; fill:none" points="
  373.905,516.347 367.336,516.347 367.336,712.49 373.905,712.49 373.905,516.347 
  "/>
<path clip-path="url(#clip302)" d="
M380.529 493.66 L373.905 493.66 L373.905 682.984 L380.529 682.984 L380.529 493.66 L380.529 493.66  Z
  " fill="#009af9" fill-rule="evenodd" fill-opacity="0.2"/>
<polyline clip-path="url(#clip302)" style="stroke:#000000; stroke-width:4; stroke-opacity:0.2; fill:none" points="
  380.529,493.66 373.905,493.66 373.905,682.984 380.529,682.984 380.529,493.66 
  "/>
<path clip-path="url(#clip302)" d="
M387.229 471.678 L380.529 471.678 L380.529 654.233 L387.229 654.233 L387.229 471.678 L387.229 471.678  Z
  " fill="#009af9" fill-rule="evenodd" fill-opacity="0.2"/>
<polyline clip-path="url(#clip302)" style="stroke:#000000; stroke-width:4; stroke-opacity:0.2; fill:none" points="
  387.229,471.678 380.529,471.678 380.529,654.233 387.229,654.233 387.229,471.678 
  "/>
<path clip-path="url(#clip302)" d="
M394.029 450.366 L387.229 450.366 L387.229 626.168 L394.029 626.168 L394.029 450.366 L394.029 450.366  Z
  " fill="#009af9" fill-rule="evenodd" fill-opacity="0.2"/>
<polyline clip-path="url(#clip302)" style="stroke:#000000; stroke-width:4; stroke-opacity:0.2; fill:none" points="
  394.029,450.366 387.229,450.366 387.229,626.168 394.029,626.168 394.029,450.366 
  "/>
<path clip-path="url(#clip302)" d="
M400.954 429.668 L394.029 429.668 L394.029 598.736 L400.954 598.736 L400.954 429.668 L400.954 429.668  Z
  " fill="#009af9" fill-rule="evenodd" fill-opacity="0.2"/>
<polyline clip-path="url(#clip302)" style="stroke:#000000; stroke-width:4; stroke-opacity:0.2; fill:none" points="
  400.954,429.668 394.029,429.668 394.029,598.736 400.954,598.736 400.954,429.668 
  "/>
<path clip-path="url(#clip302)" d="
M408.034 409.528 L400.954 409.528 L400.954 571.89 L408.034 571.89 L408.034 409.528 L408.034 409.528  Z
  " fill="#009af9" fill-rule="evenodd" fill-opacity="0.2"/>
<polyline clip-path="url(#clip302)" style="stroke:#000000; stroke-width:4; stroke-opacity:0.2; fill:none" points="
  408.034,409.528 400.954,409.528 400.954,571.89 408.034,571.89 408.034,409.528 
  "/>
<path clip-path="url(#clip302)" d="
M415.307 389.882 L408.034 389.882 L408.034 545.574 L415.307 545.574 L415.307 389.882 L415.307 389.882  Z
  " fill="#009af9" fill-rule="evenodd" fill-opacity="0.2"/>
<polyline clip-path="url(#clip302)" style="stroke:#000000; stroke-width:4; stroke-opacity:0.2; fill:none" points="
  415.307,389.882 408.034,389.882 408.034,545.574 415.307,545.574 415.307,389.882 
  "/>
<path clip-path="url(#clip302)" d="
M422.823 370.646 L415.307 370.646 L415.307 519.723 L422.823 519.723 L422.823 370.646 L422.823 370.646  Z
  " fill="#009af9" fill-rule="evenodd" fill-opacity="0.2"/>
<polyline clip-path="url(#clip302)" style="stroke:#000000; stroke-width:4; stroke-opacity:0.2; fill:none" points="
  422.823,370.646 415.307,370.646 415.307,519.723 422.823,519.723 422.823,370.646 
  "/>
<path clip-path="url(#clip302)" d="
M430.656 351.701 L422.823 351.701 L422.823 494.253 L430.656 494.253 L430.656 351.701 L430.656 351.701  Z
  " fill="#009af9" fill-rule="evenodd" fill-opacity="0.2"/>
<polyline clip-path="url(#clip302)" style="stroke:#000000; stroke-width:4; stroke-opacity:0.2; fill:none" points="
  430.656,351.701 422.823,351.701 422.823,494.253 430.656,494.253 430.656,351.701 
  "/>
<path clip-path="url(#clip302)" d="
M438.756 333.326 L430.656 333.326 L430.656 469.003 L438.756 469.003 L438.756 333.326 L438.756 333.326  Z
  " fill="#009af9" fill-rule="evenodd" fill-opacity="0.2"/>
<polyline clip-path="url(#clip302)" style="stroke:#000000; stroke-width:4; stroke-opacity:0.2; fill:none" points="
  438.756,333.326 430.656,333.326 430.656,469.003 438.756,469.003 438.756,333.326 
  "/>
<path clip-path="url(#clip302)" d="
M447.022 315.817 L438.756 315.817 L438.756 444.247 L447.022 444.247 L447.022 315.817 L447.022 315.817  Z
  " fill="#009af9" fill-rule="evenodd" fill-opacity="0.2"/>
<polyline clip-path="url(#clip302)" style="stroke:#000000; stroke-width:4; stroke-opacity:0.2; fill:none" points="
  447.022,315.817 438.756,315.817 438.756,444.247 447.022,444.247 447.022,315.817 
  "/>
<path clip-path="url(#clip302)" d="
M455.498 299.019 L447.022 299.019 L447.022 420.391 L455.498 420.391 L455.498 299.019 L455.498 299.019  Z
  " fill="#009af9" fill-rule="evenodd" fill-opacity="0.2"/>
<polyline clip-path="url(#clip302)" style="stroke:#000000; stroke-width:4; stroke-opacity:0.2; fill:none" points="
  455.498,299.019 447.022,299.019 447.022,420.391 455.498,420.391 455.498,299.019 
  "/>
<path clip-path="url(#clip302)" d="
M464.238 282.856 L455.498 282.856 L455.498 397.36 L464.238 397.36 L464.238 282.856 L464.238 282.856  Z
  " fill="#009af9" fill-rule="evenodd" fill-opacity="0.2"/>
<polyline clip-path="url(#clip302)" style="stroke:#000000; stroke-width:4; stroke-opacity:0.2; fill:none" points="
  464.238,282.856 455.498,282.856 455.498,397.36 464.238,397.36 464.238,282.856 
  "/>
<path clip-path="url(#clip302)" d="
M473.314 267.245 L464.238 267.245 L464.238 375.075 L473.314 375.075 L473.314 267.245 L473.314 267.245  Z
  " fill="#009af9" fill-rule="evenodd" fill-opacity="0.2"/>
<polyline clip-path="url(#clip302)" style="stroke:#000000; stroke-width:4; stroke-opacity:0.2; fill:none" points="
  473.314,267.245 464.238,267.245 464.238,375.075 473.314,375.075 473.314,267.245 
  "/>
<path clip-path="url(#clip302)" d="
M482.28 253.18 L473.314 253.18 L473.314 353.352 L482.28 353.352 L482.28 253.18 L482.28 253.18  Z
  " fill="#009af9" fill-rule="evenodd" fill-opacity="0.2"/>
<polyline clip-path="url(#clip302)" style="stroke:#000000; stroke-width:4; stroke-opacity:0.2; fill:none" points="
  482.28,253.18 473.314,253.18 473.314,353.352 482.28,353.352 482.28,253.18 
  "/>
<path clip-path="url(#clip302)" d="
M490.977 240.608 L482.28 240.608 L482.28 333.301 L490.977 333.301 L490.977 240.608 L490.977 240.608  Z
  " fill="#009af9" fill-rule="evenodd" fill-opacity="0.2"/>
<polyline clip-path="url(#clip302)" style="stroke:#000000; stroke-width:4; stroke-opacity:0.2; fill:none" points="
  490.977,240.608 482.28,240.608 482.28,333.301 490.977,333.301 490.977,240.608 
  "/>
<path clip-path="url(#clip302)" d="
M499.538 229.064 L490.977 229.064 L490.977 315.171 L499.538 315.171 L499.538 229.064 L499.538 229.064  Z
  " fill="#009af9" fill-rule="evenodd" fill-opacity="0.2"/>
<polyline clip-path="url(#clip302)" style="stroke:#000000; stroke-width:4; stroke-opacity:0.2; fill:none" points="
  499.538,229.064 490.977,229.064 490.977,315.171 499.538,315.171 499.538,229.064 
  "/>
<path clip-path="url(#clip302)" d="
M508.035 218.399 L499.538 218.399 L499.538 298.522 L508.035 298.522 L508.035 218.399 L508.035 218.399  Z
  " fill="#009af9" fill-rule="evenodd" fill-opacity="0.2"/>
<polyline clip-path="url(#clip302)" style="stroke:#000000; stroke-width:4; stroke-opacity:0.2; fill:none" points="
  508.035,218.399 499.538,218.399 499.538,298.522 508.035,298.522 508.035,218.399 
  "/>
<path clip-path="url(#clip302)" d="
M516.515 208.504 L508.035 208.504 L508.035 283.106 L516.515 283.106 L516.515 208.504 L516.515 208.504  Z
  " fill="#009af9" fill-rule="evenodd" fill-opacity="0.2"/>
<polyline clip-path="url(#clip302)" style="stroke:#000000; stroke-width:4; stroke-opacity:0.2; fill:none" points="
  516.515,208.504 508.035,208.504 508.035,283.106 516.515,283.106 516.515,208.504 
  "/>
<path clip-path="url(#clip302)" d="
M525.016 199.295 L516.515 199.295 L516.515 268.76 L525.016 268.76 L525.016 199.295 L525.016 199.295  Z
  " fill="#009af9" fill-rule="evenodd" fill-opacity="0.2"/>
<polyline clip-path="url(#clip302)" style="stroke:#000000; stroke-width:4; stroke-opacity:0.2; fill:none" points="
  525.016,199.295 516.515,199.295 516.515,268.76 525.016,268.76 525.016,199.295 
  "/>
<path clip-path="url(#clip302)" d="
M533.563 190.707 L525.016 190.707 L525.016 255.367 L533.563 255.367 L533.563 190.707 L533.563 190.707  Z
  " fill="#009af9" fill-rule="evenodd" fill-opacity="0.2"/>
<polyline clip-path="url(#clip302)" style="stroke:#000000; stroke-width:4; stroke-opacity:0.2; fill:none" points="
  533.563,190.707 525.016,190.707 525.016,255.367 533.563,255.367 533.563,190.707 
  "/>
<path clip-path="url(#clip302)" d="
M542.18 182.687 L533.563 182.687 L533.563 242.837 L542.18 242.837 L542.18 182.687 L542.18 182.687  Z
  " fill="#009af9" fill-rule="evenodd" fill-opacity="0.2"/>
<polyline clip-path="url(#clip302)" style="stroke:#000000; stroke-width:4; stroke-opacity:0.2; fill:none" points="
  542.18,182.687 533.563,182.687 533.563,242.837 542.18,242.837 542.18,182.687 
  "/>
<path clip-path="url(#clip302)" d="
M550.89 175.19 L542.18 175.19 L542.18 231.096 L550.89 231.096 L550.89 175.19 L550.89 175.19  Z
  " fill="#009af9" fill-rule="evenodd" fill-opacity="0.2"/>
<polyline clip-path="url(#clip302)" style="stroke:#000000; stroke-width:4; stroke-opacity:0.2; fill:none" points="
  550.89,175.19 542.18,175.19 542.18,231.096 550.89,231.096 550.89,175.19 
  "/>
<path clip-path="url(#clip302)" d="
M559.713 168.176 L550.89 168.176 L550.89 220.086 L559.713 220.086 L559.713 168.176 L559.713 168.176  Z
  " fill="#009af9" fill-rule="evenodd" fill-opacity="0.2"/>
<polyline clip-path="url(#clip302)" style="stroke:#000000; stroke-width:4; stroke-opacity:0.2; fill:none" points="
  559.713,168.176 550.89,168.176 550.89,220.086 559.713,220.086 559.713,168.176 
  "/>
<path clip-path="url(#clip302)" d="
M568.668 161.613 L559.713 161.613 L559.713 209.754 L568.668 209.754 L568.668 161.613 L568.668 161.613  Z
  " fill="#009af9" fill-rule="evenodd" fill-opacity="0.2"/>
<polyline clip-path="url(#clip302)" style="stroke:#000000; stroke-width:4; stroke-opacity:0.2; fill:none" points="
  568.668,161.613 559.713,161.613 559.713,209.754 568.668,209.754 568.668,161.613 
  "/>
<path clip-path="url(#clip302)" d="
M577.774 155.471 L568.668 155.471 L568.668 200.056 L577.774 200.056 L577.774 155.471 L577.774 155.471  Z
  " fill="#009af9" fill-rule="evenodd" fill-opacity="0.2"/>
<polyline clip-path="url(#clip302)" style="stroke:#000000; stroke-width:4; stroke-opacity:0.2; fill:none" points="
  577.774,155.471 568.668,155.471 568.668,200.056 577.774,200.056 577.774,155.471 
  "/>
<path clip-path="url(#clip302)" d="
M587.053 149.721 L577.774 149.721 L577.774 190.954 L587.053 190.954 L587.053 149.721 L587.053 149.721  Z
  " fill="#009af9" fill-rule="evenodd" fill-opacity="0.2"/>
<polyline clip-path="url(#clip302)" style="stroke:#000000; stroke-width:4; stroke-opacity:0.2; fill:none" points="
  587.053,149.721 577.774,149.721 577.774,190.954 587.053,190.954 587.053,149.721 
  "/>
<path clip-path="url(#clip302)" d="
M596.527 144.341 L587.053 144.341 L587.053 182.411 L596.527 182.411 L596.527 144.341 L596.527 144.341  Z
  " fill="#009af9" fill-rule="evenodd" fill-opacity="0.2"/>
<polyline clip-path="url(#clip302)" style="stroke:#000000; stroke-width:4; stroke-opacity:0.2; fill:none" points="
  596.527,144.341 587.053,144.341 587.053,182.411 596.527,182.411 596.527,144.341 
  "/>
<path clip-path="url(#clip302)" d="
M606.221 139.307 L596.527 139.307 L596.527 174.395 L606.221 174.395 L606.221 139.307 L606.221 139.307  Z
  " fill="#009af9" fill-rule="evenodd" fill-opacity="0.2"/>
<polyline clip-path="url(#clip302)" style="stroke:#000000; stroke-width:4; stroke-opacity:0.2; fill:none" points="
  606.221,139.307 596.527,139.307 596.527,174.395 606.221,174.395 606.221,139.307 
  "/>
<path clip-path="url(#clip302)" d="
M616.16 134.598 L606.221 134.598 L606.221 166.877 L616.16 166.877 L616.16 134.598 L616.16 134.598  Z
  " fill="#009af9" fill-rule="evenodd" fill-opacity="0.2"/>
<polyline clip-path="url(#clip302)" style="stroke:#000000; stroke-width:4; stroke-opacity:0.2; fill:none" points="
  616.16,134.598 606.221,134.598 606.221,166.877 616.16,166.877 616.16,134.598 
  "/>
<path clip-path="url(#clip302)" d="
M626.379 130.195 L616.16 130.195 L616.16 159.828 L626.379 159.828 L626.379 130.195 L626.379 130.195  Z
  " fill="#009af9" fill-rule="evenodd" fill-opacity="0.2"/>
<polyline clip-path="url(#clip302)" style="stroke:#000000; stroke-width:4; stroke-opacity:0.2; fill:none" points="
  626.379,130.195 616.16,130.195 616.16,159.828 626.379,159.828 626.379,130.195 
  "/>
<path clip-path="url(#clip302)" d="
M636.914 126.079 L626.379 126.079 L626.379 153.222 L636.914 153.222 L636.914 126.079 L636.914 126.079  Z
  " fill="#009af9" fill-rule="evenodd" fill-opacity="0.2"/>
<polyline clip-path="url(#clip302)" style="stroke:#000000; stroke-width:4; stroke-opacity:0.2; fill:none" points="
  636.914,126.079 626.379,126.079 626.379,153.222 636.914,153.222 636.914,126.079 
  "/>
<path clip-path="url(#clip302)" d="
M647.812 122.231 L636.914 122.231 L636.914 147.035 L647.812 147.035 L647.812 122.231 L647.812 122.231  Z
  " fill="#009af9" fill-rule="evenodd" fill-opacity="0.2"/>
<polyline clip-path="url(#clip302)" style="stroke:#000000; stroke-width:4; stroke-opacity:0.2; fill:none" points="
  647.812,122.231 636.914,122.231 636.914,147.035 647.812,147.035 647.812,122.231 
  "/>
<path clip-path="url(#clip302)" d="
M659.136 118.631 L647.812 118.631 L647.812 141.241 L659.136 141.241 L659.136 118.631 L659.136 118.631  Z
  " fill="#009af9" fill-rule="evenodd" fill-opacity="0.2"/>
<polyline clip-path="url(#clip302)" style="stroke:#000000; stroke-width:4; stroke-opacity:0.2; fill:none" points="
  659.136,118.631 647.812,118.631 647.812,141.241 659.136,141.241 659.136,118.631 
  "/>
<path clip-path="url(#clip302)" d="
M670.966 115.259 L659.136 115.259 L659.136 135.816 L670.966 135.816 L670.966 115.259 L670.966 115.259  Z
  " fill="#009af9" fill-rule="evenodd" fill-opacity="0.2"/>
<polyline clip-path="url(#clip302)" style="stroke:#000000; stroke-width:4; stroke-opacity:0.2; fill:none" points="
  670.966,115.259 659.136,115.259 659.136,135.816 670.966,135.816 670.966,115.259 
  "/>
<path clip-path="url(#clip302)" d="
M683.428 112.091 L670.966 112.091 L670.966 130.732 L683.428 130.732 L683.428 112.091 L683.428 112.091  Z
  " fill="#009af9" fill-rule="evenodd" fill-opacity="0.2"/>
<polyline clip-path="url(#clip302)" style="stroke:#000000; stroke-width:4; stroke-opacity:0.2; fill:none" points="
  683.428,112.091 670.966,112.091 670.966,130.732 683.428,130.732 683.428,112.091 
  "/>
<path clip-path="url(#clip302)" d="
M696.728 109.09 L683.428 109.09 L683.428 125.962 L696.728 125.962 L696.728 109.09 L696.728 109.09  Z
  " fill="#009af9" fill-rule="evenodd" fill-opacity="0.2"/>
<polyline clip-path="url(#clip302)" style="stroke:#000000; stroke-width:4; stroke-opacity:0.2; fill:none" points="
  696.728,109.09 683.428,109.09 683.428,125.962 696.728,125.962 696.728,109.09 
  "/>
<path clip-path="url(#clip302)" d="
M710.937 106.287 L696.728 106.287 L696.728 121.452 L710.937 121.452 L710.937 106.287 L710.937 106.287  Z
  " fill="#009af9" fill-rule="evenodd" fill-opacity="0.2"/>
<polyline clip-path="url(#clip302)" style="stroke:#000000; stroke-width:4; stroke-opacity:0.2; fill:none" points="
  710.937,106.287 696.728,106.287 696.728,121.452 710.937,121.452 710.937,106.287 
  "/>
<path clip-path="url(#clip302)" d="
M725.834 103.765 L710.937 103.765 L710.937 117.207 L725.834 117.207 L725.834 103.765 L725.834 103.765  Z
  " fill="#009af9" fill-rule="evenodd" fill-opacity="0.2"/>
<polyline clip-path="url(#clip302)" style="stroke:#000000; stroke-width:4; stroke-opacity:0.2; fill:none" points="
  725.834,103.765 710.937,103.765 710.937,117.207 725.834,117.207 725.834,103.765 
  "/>
<path clip-path="url(#clip302)" d="
M741.569 101.464 L725.834 101.464 L725.834 113.333 L741.569 113.333 L741.569 101.464 L741.569 101.464  Z
  " fill="#009af9" fill-rule="evenodd" fill-opacity="0.2"/>
<polyline clip-path="url(#clip302)" style="stroke:#000000; stroke-width:4; stroke-opacity:0.2; fill:none" points="
  741.569,101.464 725.834,101.464 725.834,113.333 741.569,113.333 741.569,101.464 
  "/>
<path clip-path="url(#clip302)" d="
M757.31 99.5533 L741.569 99.5533 L741.569 109.764 L757.31 109.764 L757.31 99.5533 L757.31 99.5533  Z
  " fill="#009af9" fill-rule="evenodd" fill-opacity="0.2"/>
<polyline clip-path="url(#clip302)" style="stroke:#000000; stroke-width:4; stroke-opacity:0.2; fill:none" points="
  757.31,99.5533 741.569,99.5533 741.569,109.764 757.31,109.764 757.31,99.5533 
  "/>
<path clip-path="url(#clip302)" d="
M772.351 98.0224 L757.31 98.0224 L757.31 106.673 L772.351 106.673 L772.351 98.0224 L772.351 98.0224  Z
  " fill="#009af9" fill-rule="evenodd" fill-opacity="0.2"/>
<polyline clip-path="url(#clip302)" style="stroke:#000000; stroke-width:4; stroke-opacity:0.2; fill:none" points="
  772.351,98.0224 757.31,98.0224 757.31,106.673 772.351,106.673 772.351,98.0224 
  "/>
<path clip-path="url(#clip302)" d="
M787.113 96.6952 L772.351 96.6952 L772.351 104.136 L787.113 104.136 L787.113 96.6952 L787.113 96.6952  Z
  " fill="#009af9" fill-rule="evenodd" fill-opacity="0.2"/>
<polyline clip-path="url(#clip302)" style="stroke:#000000; stroke-width:4; stroke-opacity:0.2; fill:none" points="
  787.113,96.6952 772.351,96.6952 772.351,104.136 787.113,104.136 787.113,96.6952 
  "/>
<path clip-path="url(#clip302)" d="
M801.772 95.5426 L787.113 95.5426 L787.113 101.984 L801.772 101.984 L801.772 95.5426 L801.772 95.5426  Z
  " fill="#009af9" fill-rule="evenodd" fill-opacity="0.2"/>
<polyline clip-path="url(#clip302)" style="stroke:#000000; stroke-width:4; stroke-opacity:0.2; fill:none" points="
  801.772,95.5426 787.113,95.5426 787.113,101.984 801.772,101.984 801.772,95.5426 
  "/>
<path clip-path="url(#clip302)" d="
M816.43 94.5383 L801.772 94.5383 L801.772 100.13 L816.43 100.13 L816.43 94.5383 L816.43 94.5383  Z
  " fill="#009af9" fill-rule="evenodd" fill-opacity="0.2"/>
<polyline clip-path="url(#clip302)" style="stroke:#000000; stroke-width:4; stroke-opacity:0.2; fill:none" points="
  816.43,94.5383 801.772,94.5383 801.772,100.13 816.43,100.13 816.43,94.5383 
  "/>
<path clip-path="url(#clip302)" d="
M831.153 93.6614 L816.43 93.6614 L816.43 98.5218 L831.153 98.5218 L831.153 93.6614 L831.153 93.6614  Z
  " fill="#009af9" fill-rule="evenodd" fill-opacity="0.2"/>
<polyline clip-path="url(#clip302)" style="stroke:#000000; stroke-width:4; stroke-opacity:0.2; fill:none" points="
  831.153,93.6614 816.43,93.6614 816.43,98.5218 831.153,98.5218 831.153,93.6614 
  "/>
<path clip-path="url(#clip302)" d="
M845.989 92.8946 L831.153 92.8946 L831.153 97.1206 L845.989 97.1206 L845.989 92.8946 L845.989 92.8946  Z
  " fill="#009af9" fill-rule="evenodd" fill-opacity="0.2"/>
<polyline clip-path="url(#clip302)" style="stroke:#000000; stroke-width:4; stroke-opacity:0.2; fill:none" points="
  845.989,92.8946 831.153,92.8946 831.153,97.1206 845.989,97.1206 845.989,92.8946 
  "/>
<path clip-path="url(#clip302)" d="
M860.976 92.2239 L845.989 92.2239 L845.989 95.8966 L860.976 95.8966 L860.976 92.2239 L860.976 92.2239  Z
  " fill="#009af9" fill-rule="evenodd" fill-opacity="0.2"/>
<polyline clip-path="url(#clip302)" style="stroke:#000000; stroke-width:4; stroke-opacity:0.2; fill:none" points="
  860.976,92.2239 845.989,92.2239 845.989,95.8966 860.976,95.8966 860.976,92.2239 
  "/>
<path clip-path="url(#clip302)" d="
M876.147 91.6373 L860.976 91.6373 L860.976 94.8263 L876.147 94.8263 L876.147 91.6373 L876.147 91.6373  Z
  " fill="#009af9" fill-rule="evenodd" fill-opacity="0.2"/>
<polyline clip-path="url(#clip302)" style="stroke:#000000; stroke-width:4; stroke-opacity:0.2; fill:none" points="
  876.147,91.6373 860.976,91.6373 860.976,94.8263 876.147,94.8263 876.147,91.6373 
  "/>
<path clip-path="url(#clip302)" d="
M891.53 91.1246 L876.147 91.1246 L876.147 93.89 L891.53 93.89 L891.53 91.1246 L891.53 91.1246  Z
  " fill="#009af9" fill-rule="evenodd" fill-opacity="0.2"/>
<polyline clip-path="url(#clip302)" style="stroke:#000000; stroke-width:4; stroke-opacity:0.2; fill:none" points="
  891.53,91.1246 876.147,91.1246 876.147,93.89 891.53,93.89 891.53,91.1246 
  "/>
<path clip-path="url(#clip302)" d="
M907.15 90.6769 L891.53 90.6769 L891.53 93.0712 L907.15 93.0712 L907.15 90.6769 L907.15 90.6769  Z
  " fill="#009af9" fill-rule="evenodd" fill-opacity="0.2"/>
<polyline clip-path="url(#clip302)" style="stroke:#000000; stroke-width:4; stroke-opacity:0.2; fill:none" points="
  907.15,90.6769 891.53,90.6769 891.53,93.0712 907.15,93.0712 907.15,90.6769 
  "/>
<path clip-path="url(#clip302)" d="
M923.03 90.2866 L907.15 90.2866 L907.15 92.3556 L923.03 92.3556 L923.03 90.2866 L923.03 90.2866  Z
  " fill="#009af9" fill-rule="evenodd" fill-opacity="0.2"/>
<polyline clip-path="url(#clip302)" style="stroke:#000000; stroke-width:4; stroke-opacity:0.2; fill:none" points="
  923.03,90.2866 907.15,90.2866 907.15,92.3556 923.03,92.3556 923.03,90.2866 
  "/>
<path clip-path="url(#clip302)" d="
M939.193 89.9469 L923.03 89.9469 L923.03 91.7311 L939.193 91.7311 L939.193 89.9469 L939.193 89.9469  Z
  " fill="#009af9" fill-rule="evenodd" fill-opacity="0.2"/>
<polyline clip-path="url(#clip302)" style="stroke:#000000; stroke-width:4; stroke-opacity:0.2; fill:none" points="
  939.193,89.9469 923.03,89.9469 923.03,91.7311 939.193,91.7311 939.193,89.9469 
  "/>
<path clip-path="url(#clip302)" d="
M955.662 89.6519 L939.193 89.6519 L939.193 91.1867 L955.662 91.1867 L955.662 89.6519 L955.662 89.6519  Z
  " fill="#009af9" fill-rule="evenodd" fill-opacity="0.2"/>
<polyline clip-path="url(#clip302)" style="stroke:#000000; stroke-width:4; stroke-opacity:0.2; fill:none" points="
  955.662,89.6519 939.193,89.6519 939.193,91.1867 955.662,91.1867 955.662,89.6519 
  "/>
<path clip-path="url(#clip302)" d="
M972.459 89.3962 L955.662 89.3962 L955.662 90.7132 L972.459 90.7132 L972.459 89.3962 L972.459 89.3962  Z
  " fill="#009af9" fill-rule="evenodd" fill-opacity="0.2"/>
<polyline clip-path="url(#clip302)" style="stroke:#000000; stroke-width:4; stroke-opacity:0.2; fill:none" points="
  972.459,89.3962 955.662,89.3962 955.662,90.7132 972.459,90.7132 972.459,89.3962 
  "/>
<path clip-path="url(#clip302)" d="
M989.605 89.1752 L972.459 89.1752 L972.459 90.3022 L989.605 90.3022 L989.605 89.1752 L989.605 89.1752  Z
  " fill="#009af9" fill-rule="evenodd" fill-opacity="0.2"/>
<polyline clip-path="url(#clip302)" style="stroke:#000000; stroke-width:4; stroke-opacity:0.2; fill:none" points="
  989.605,89.1752 972.459,89.1752 972.459,90.3022 989.605,90.3022 989.605,89.1752 
  "/>
<path clip-path="url(#clip302)" d="
M1007.12 88.9848 L989.605 88.9848 L989.605 89.9462 L1007.12 89.9462 L1007.12 88.9848 L1007.12 88.9848  Z
  " fill="#009af9" fill-rule="evenodd" fill-opacity="0.2"/>
<polyline clip-path="url(#clip302)" style="stroke:#000000; stroke-width:4; stroke-opacity:0.2; fill:none" points="
  1007.12,88.9848 989.605,88.9848 989.605,89.9462 1007.12,89.9462 1007.12,88.9848 
  "/>
<path clip-path="url(#clip302)" d="
M1025.04 88.8211 L1007.12 88.8211 L1007.12 89.6387 L1025.04 89.6387 L1025.04 88.8211 L1025.04 88.8211  Z
  " fill="#009af9" fill-rule="evenodd" fill-opacity="0.2"/>
<polyline clip-path="url(#clip302)" style="stroke:#000000; stroke-width:4; stroke-opacity:0.2; fill:none" points="
  1025.04,88.8211 1007.12,88.8211 1007.12,89.6387 1025.04,89.6387 1025.04,88.8211 
  "/>
<path clip-path="url(#clip302)" d="
M1043.38 88.681 L1025.04 88.681 L1025.04 89.3739 L1043.38 89.3739 L1043.38 88.681 L1043.38 88.681  Z
  " fill="#009af9" fill-rule="evenodd" fill-opacity="0.2"/>
<polyline clip-path="url(#clip302)" style="stroke:#000000; stroke-width:4; stroke-opacity:0.2; fill:none" points="
  1043.38,88.681 1025.04,88.681 1025.04,89.3739 1043.38,89.3739 1043.38,88.681 
  "/>
<path clip-path="url(#clip302)" d="
M1062.16 88.5614 L1043.38 88.5614 L1043.38 89.1465 L1062.16 89.1465 L1062.16 88.5614 L1062.16 88.5614  Z
  " fill="#009af9" fill-rule="evenodd" fill-opacity="0.2"/>
<polyline clip-path="url(#clip302)" style="stroke:#000000; stroke-width:4; stroke-opacity:0.2; fill:none" points="
  1062.16,88.5614 1043.38,88.5614 1043.38,89.1465 1062.16,89.1465 1062.16,88.5614 
  "/>
<path clip-path="url(#clip302)" d="
M1081.42 88.4597 L1062.16 88.4597 L1062.16 88.9519 L1081.42 88.9519 L1081.42 88.4597 L1081.42 88.4597  Z
  " fill="#009af9" fill-rule="evenodd" fill-opacity="0.2"/>
<polyline clip-path="url(#clip302)" style="stroke:#000000; stroke-width:4; stroke-opacity:0.2; fill:none" points="
  1081.42,88.4597 1062.16,88.4597 1062.16,88.9519 1081.42,88.9519 1081.42,88.4597 
  "/>
<path clip-path="url(#clip302)" d="
M1101.17 88.3736 L1081.42 88.3736 L1081.42 88.786 L1101.17 88.786 L1101.17 88.3736 L1101.17 88.3736  Z
  " fill="#009af9" fill-rule="evenodd" fill-opacity="0.2"/>
<polyline clip-path="url(#clip302)" style="stroke:#000000; stroke-width:4; stroke-opacity:0.2; fill:none" points="
  1101.17,88.3736 1081.42,88.3736 1081.42,88.786 1101.17,88.786 1101.17,88.3736 
  "/>
<path clip-path="url(#clip302)" d="
M1121.47 88.3011 L1101.17 88.3011 L1101.17 88.6451 L1121.47 88.6451 L1121.47 88.3011 L1121.47 88.3011  Z
  " fill="#009af9" fill-rule="evenodd" fill-opacity="0.2"/>
<polyline clip-path="url(#clip302)" style="stroke:#000000; stroke-width:4; stroke-opacity:0.2; fill:none" points="
  1121.47,88.3011 1101.17,88.3011 1101.17,88.6451 1121.47,88.6451 1121.47,88.3011 
  "/>
<path clip-path="url(#clip302)" d="
M1142.32 88.2403 L1121.47 88.2403 L1121.47 88.5259 L1142.32 88.5259 L1142.32 88.2403 L1142.32 88.2403  Z
  " fill="#009af9" fill-rule="evenodd" fill-opacity="0.2"/>
<polyline clip-path="url(#clip302)" style="stroke:#000000; stroke-width:4; stroke-opacity:0.2; fill:none" points="
  1142.32,88.2403 1121.47,88.2403 1121.47,88.5259 1142.32,88.5259 1142.32,88.2403 
  "/>
<path clip-path="url(#clip302)" d="
M1163.78 88.1895 L1142.32 88.1895 L1142.32 88.4255 L1163.78 88.4255 L1163.78 88.1895 L1163.78 88.1895  Z
  " fill="#009af9" fill-rule="evenodd" fill-opacity="0.2"/>
<polyline clip-path="url(#clip302)" style="stroke:#000000; stroke-width:4; stroke-opacity:0.2; fill:none" points="
  1163.78,88.1895 1142.32,88.1895 1142.32,88.4255 1163.78,88.4255 1163.78,88.1895 
  "/>
<path clip-path="url(#clip302)" d="
M1185.87 88.1473 L1163.78 88.1473 L1163.78 88.3413 L1185.87 88.3413 L1185.87 88.1473 L1185.87 88.1473  Z
  " fill="#009af9" fill-rule="evenodd" fill-opacity="0.2"/>
<polyline clip-path="url(#clip302)" style="stroke:#000000; stroke-width:4; stroke-opacity:0.2; fill:none" points="
  1185.87,88.1473 1163.78,88.1473 1163.78,88.3413 1185.87,88.3413 1185.87,88.1473 
  "/>
<path clip-path="url(#clip302)" d="
M1208.65 88.1125 L1185.87 88.1125 L1185.87 88.2711 L1208.65 88.2711 L1208.65 88.1125 L1208.65 88.1125  Z
  " fill="#009af9" fill-rule="evenodd" fill-opacity="0.2"/>
<polyline clip-path="url(#clip302)" style="stroke:#000000; stroke-width:4; stroke-opacity:0.2; fill:none" points="
  1208.65,88.1125 1185.87,88.1125 1185.87,88.2711 1208.65,88.2711 1208.65,88.1125 
  "/>
<path clip-path="url(#clip302)" d="
M1232.15 88.084 L1208.65 88.084 L1208.65 88.2129 L1232.15 88.2129 L1232.15 88.084 L1232.15 88.084  Z
  " fill="#009af9" fill-rule="evenodd" fill-opacity="0.2"/>
<polyline clip-path="url(#clip302)" style="stroke:#000000; stroke-width:4; stroke-opacity:0.2; fill:none" points="
  1232.15,88.084 1208.65,88.084 1208.65,88.2129 1232.15,88.2129 1232.15,88.084 
  "/>
<path clip-path="url(#clip302)" d="
M1256.42 88.0607 L1232.15 88.0607 L1232.15 88.1649 L1256.42 88.1649 L1256.42 88.0607 L1256.42 88.0607  Z
  " fill="#009af9" fill-rule="evenodd" fill-opacity="0.2"/>
<polyline clip-path="url(#clip302)" style="stroke:#000000; stroke-width:4; stroke-opacity:0.2; fill:none" points="
  1256.42,88.0607 1232.15,88.0607 1232.15,88.1649 1256.42,88.1649 1256.42,88.0607 
  "/>
<path clip-path="url(#clip302)" d="
M1281.52 88.0419 L1256.42 88.0419 L1256.42 88.1255 L1281.52 88.1255 L1281.52 88.0419 L1281.52 88.0419  Z
  " fill="#009af9" fill-rule="evenodd" fill-opacity="0.2"/>
<polyline clip-path="url(#clip302)" style="stroke:#000000; stroke-width:4; stroke-opacity:0.2; fill:none" points="
  1281.52,88.0419 1256.42,88.0419 1256.42,88.1255 1281.52,88.1255 1281.52,88.0419 
  "/>
<path clip-path="url(#clip302)" d="
M1307.51 88.0268 L1281.52 88.0268 L1281.52 88.0934 L1307.51 88.0934 L1307.51 88.0268 L1307.51 88.0268  Z
  " fill="#009af9" fill-rule="evenodd" fill-opacity="0.2"/>
<polyline clip-path="url(#clip302)" style="stroke:#000000; stroke-width:4; stroke-opacity:0.2; fill:none" points="
  1307.51,88.0268 1281.52,88.0268 1281.52,88.0934 1307.51,88.0934 1307.51,88.0268 
  "/>
<path clip-path="url(#clip302)" d="
M1334.45 88.0148 L1307.51 88.0148 L1307.51 88.0675 L1334.45 88.0675 L1334.45 88.0148 L1334.45 88.0148  Z
  " fill="#009af9" fill-rule="evenodd" fill-opacity="0.2"/>
<polyline clip-path="url(#clip302)" style="stroke:#000000; stroke-width:4; stroke-opacity:0.2; fill:none" points="
  1334.45,88.0148 1307.51,88.0148 1307.51,88.0675 1334.45,88.0675 1334.45,88.0148 
  "/>
<path clip-path="url(#clip302)" d="
M1362.41 88.0053 L1334.45 88.0053 L1334.45 88.0467 L1362.41 88.0467 L1362.41 88.0053 L1362.41 88.0053  Z
  " fill="#009af9" fill-rule="evenodd" fill-opacity="0.2"/>
<polyline clip-path="url(#clip302)" style="stroke:#000000; stroke-width:4; stroke-opacity:0.2; fill:none" points="
  1362.41,88.0053 1334.45,88.0053 1334.45,88.0467 1362.41,88.0467 1362.41,88.0053 
  "/>
<path clip-path="url(#clip302)" d="
M1391.48 87.9979 L1362.41 87.9979 L1362.41 88.0301 L1391.48 88.0301 L1391.48 87.9979 L1391.48 87.9979  Z
  " fill="#009af9" fill-rule="evenodd" fill-opacity="0.2"/>
<polyline clip-path="url(#clip302)" style="stroke:#000000; stroke-width:4; stroke-opacity:0.2; fill:none" points="
  1391.48,87.9979 1362.41,87.9979 1362.41,88.0301 1391.48,88.0301 1391.48,87.9979 
  "/>
<path clip-path="url(#clip302)" d="
M1421.75 87.9922 L1391.48 87.9922 L1391.48 88.017 L1421.75 88.017 L1421.75 87.9922 L1421.75 87.9922  Z
  " fill="#009af9" fill-rule="evenodd" fill-opacity="0.2"/>
<polyline clip-path="url(#clip302)" style="stroke:#000000; stroke-width:4; stroke-opacity:0.2; fill:none" points="
  1421.75,87.9922 1391.48,87.9922 1391.48,88.017 1421.75,88.017 1421.75,87.9922 
  "/>
<path clip-path="url(#clip302)" d="
M1453.31 87.9878 L1421.75 87.9878 L1421.75 88.0067 L1453.31 88.0067 L1453.31 87.9878 L1453.31 87.9878  Z
  " fill="#009af9" fill-rule="evenodd" fill-opacity="0.2"/>
<polyline clip-path="url(#clip302)" style="stroke:#000000; stroke-width:4; stroke-opacity:0.2; fill:none" points="
  1453.31,87.9878 1421.75,87.9878 1421.75,88.0067 1453.31,88.0067 1453.31,87.9878 
  "/>
<path clip-path="url(#clip302)" d="
M1486.29 87.9845 L1453.31 87.9845 L1453.31 87.9988 L1486.29 87.9988 L1486.29 87.9845 L1486.29 87.9845  Z
  " fill="#009af9" fill-rule="evenodd" fill-opacity="0.2"/>
<polyline clip-path="url(#clip302)" style="stroke:#000000; stroke-width:4; stroke-opacity:0.2; fill:none" points="
  1486.29,87.9845 1453.31,87.9845 1453.31,87.9988 1486.29,87.9988 1486.29,87.9845 
  "/>
<path clip-path="url(#clip302)" d="
M1510.53 87.9807 L1486.29 87.9807 L1486.29 87.9994 L1510.53 87.9994 L1510.53 87.9807 L1510.53 87.9807  Z
  " fill="#009af9" fill-rule="evenodd" fill-opacity="0.2"/>
<polyline clip-path="url(#clip302)" style="stroke:#000000; stroke-width:4; stroke-opacity:0.2; fill:none" points="
  1510.53,87.9807 1486.29,87.9807 1486.29,87.9994 1510.53,87.9994 1510.53,87.9807 
  "/>
<path clip-path="url(#clip302)" d="
M1535.6 87.9796 L1510.53 87.9796 L1510.53 87.9946 L1535.6 87.9946 L1535.6 87.9796 L1535.6 87.9796  Z
  " fill="#009af9" fill-rule="evenodd" fill-opacity="0.2"/>
<polyline clip-path="url(#clip302)" style="stroke:#000000; stroke-width:4; stroke-opacity:0.2; fill:none" points="
  1535.6,87.9796 1510.53,87.9796 1510.53,87.9946 1535.6,87.9946 1535.6,87.9796 
  "/>
<path clip-path="url(#clip302)" d="
M1561.57 87.9788 L1535.6 87.9788 L1535.6 87.9907 L1561.57 87.9907 L1561.57 87.9788 L1561.57 87.9788  Z
  " fill="#009af9" fill-rule="evenodd" fill-opacity="0.2"/>
<polyline clip-path="url(#clip302)" style="stroke:#000000; stroke-width:4; stroke-opacity:0.2; fill:none" points="
  1561.57,87.9788 1535.6,87.9788 1535.6,87.9907 1561.57,87.9907 1561.57,87.9788 
  "/>
<path clip-path="url(#clip302)" d="
M1588.48 87.9782 L1561.57 87.9782 L1561.57 87.9875 L1588.48 87.9875 L1588.48 87.9782 L1588.48 87.9782  Z
  " fill="#009af9" fill-rule="evenodd" fill-opacity="0.2"/>
<polyline clip-path="url(#clip302)" style="stroke:#000000; stroke-width:4; stroke-opacity:0.2; fill:none" points="
  1588.48,87.9782 1561.57,87.9782 1561.57,87.9875 1588.48,87.9875 1588.48,87.9782 
  "/>
<path clip-path="url(#clip302)" d="
M1616.42 87.9777 L1588.48 87.9777 L1588.48 87.985 L1616.42 87.985 L1616.42 87.9777 L1616.42 87.9777  Z
  " fill="#009af9" fill-rule="evenodd" fill-opacity="0.2"/>
<polyline clip-path="url(#clip302)" style="stroke:#000000; stroke-width:4; stroke-opacity:0.2; fill:none" points="
  1616.42,87.9777 1588.48,87.9777 1588.48,87.985 1616.42,87.985 1616.42,87.9777 
  "/>
<path clip-path="url(#clip302)" d="
M1645.47 87.9773 L1616.42 87.9773 L1616.42 87.9829 L1645.47 87.9829 L1645.47 87.9773 L1645.47 87.9773  Z
  " fill="#009af9" fill-rule="evenodd" fill-opacity="0.2"/>
<polyline clip-path="url(#clip302)" style="stroke:#000000; stroke-width:4; stroke-opacity:0.2; fill:none" points="
  1645.47,87.9773 1616.42,87.9773 1616.42,87.9829 1645.47,87.9829 1645.47,87.9773 
  "/>
<path clip-path="url(#clip302)" d="
M1675.71 87.977 L1645.47 87.977 L1645.47 87.9813 L1675.71 87.9813 L1675.71 87.977 L1675.71 87.977  Z
  " fill="#009af9" fill-rule="evenodd" fill-opacity="0.2"/>
<polyline clip-path="url(#clip302)" style="stroke:#000000; stroke-width:4; stroke-opacity:0.2; fill:none" points="
  1675.71,87.977 1645.47,87.977 1645.47,87.9813 1675.71,87.9813 1675.71,87.977 
  "/>
<path clip-path="url(#clip302)" d="
M1707.26 87.9768 L1675.71 87.9768 L1675.71 87.9801 L1707.26 87.9801 L1707.26 87.9768 L1707.26 87.9768  Z
  " fill="#009af9" fill-rule="evenodd" fill-opacity="0.2"/>
<polyline clip-path="url(#clip302)" style="stroke:#000000; stroke-width:4; stroke-opacity:0.2; fill:none" points="
  1707.26,87.9768 1675.71,87.9768 1675.71,87.9801 1707.26,87.9801 1707.26,87.9768 
  "/>
<path clip-path="url(#clip302)" d="
M1740.21 87.9767 L1707.26 87.9767 L1707.26 87.9791 L1740.21 87.9791 L1740.21 87.9767 L1740.21 87.9767  Z
  " fill="#009af9" fill-rule="evenodd" fill-opacity="0.2"/>
<polyline clip-path="url(#clip302)" style="stroke:#000000; stroke-width:4; stroke-opacity:0.2; fill:none" points="
  1740.21,87.9767 1707.26,87.9767 1707.26,87.9791 1740.21,87.9791 1740.21,87.9767 
  "/>
<path clip-path="url(#clip302)" d="
M1774.72 87.9766 L1740.21 87.9766 L1740.21 87.9784 L1774.72 87.9784 L1774.72 87.9766 L1774.72 87.9766  Z
  " fill="#009af9" fill-rule="evenodd" fill-opacity="0.2"/>
<polyline clip-path="url(#clip302)" style="stroke:#000000; stroke-width:4; stroke-opacity:0.2; fill:none" points="
  1774.72,87.9766 1740.21,87.9766 1740.21,87.9784 1774.72,87.9784 1774.72,87.9766 
  "/>
<path clip-path="url(#clip302)" d="
M1810.91 87.9765 L1774.72 87.9765 L1774.72 87.9778 L1810.91 87.9778 L1810.91 87.9765 L1810.91 87.9765  Z
  " fill="#009af9" fill-rule="evenodd" fill-opacity="0.2"/>
<polyline clip-path="url(#clip302)" style="stroke:#000000; stroke-width:4; stroke-opacity:0.2; fill:none" points="
  1810.91,87.9765 1774.72,87.9765 1774.72,87.9778 1810.91,87.9778 1810.91,87.9765 
  "/>
<path clip-path="url(#clip302)" d="
M1810.91 87.9764 L1848.98 87.9764 L1810.91 87.9764 L1810.91 87.9764  Z
  " fill="#009af9" fill-rule="evenodd" fill-opacity="0.2"/>
<polyline clip-path="url(#clip302)" style="stroke:#000000; stroke-width:4; stroke-opacity:0.2; fill:none" points="
  1810.91,87.9764 1848.98,87.9764 1810.91,87.9764 
  "/>
<path clip-path="url(#clip302)" d="
M1848.98 87.9764 L1889.12 87.9764 L1848.98 87.9764 L1848.98 87.9764  Z
  " fill="#009af9" fill-rule="evenodd" fill-opacity="0.2"/>
<polyline clip-path="url(#clip302)" style="stroke:#000000; stroke-width:4; stroke-opacity:0.2; fill:none" points="
  1848.98,87.9764 1889.12,87.9764 1848.98,87.9764 
  "/>
<path clip-path="url(#clip302)" d="
M1889.12 87.9763 L1918.74 87.9763 L1889.12 87.9763 L1889.12 87.9763  Z
  " fill="#009af9" fill-rule="evenodd" fill-opacity="0.2"/>
<polyline clip-path="url(#clip302)" style="stroke:#000000; stroke-width:4; stroke-opacity:0.2; fill:none" points="
  1889.12,87.9763 1918.74,87.9763 1889.12,87.9763 
  "/>
<path clip-path="url(#clip302)" d="
M1918.74 87.9763 L1949.61 87.9763 L1918.74 87.9763 L1918.74 87.9763  Z
  " fill="#009af9" fill-rule="evenodd" fill-opacity="0.2"/>
<polyline clip-path="url(#clip302)" style="stroke:#000000; stroke-width:4; stroke-opacity:0.2; fill:none" points="
  1918.74,87.9763 1949.61,87.9763 1918.74,87.9763 
  "/>
<path clip-path="url(#clip302)" d="
M1949.61 87.9763 L1981.83 87.9763 L1949.61 87.9763 L1949.61 87.9763  Z
  " fill="#009af9" fill-rule="evenodd" fill-opacity="0.2"/>
<polyline clip-path="url(#clip302)" style="stroke:#000000; stroke-width:4; stroke-opacity:0.2; fill:none" points="
  1949.61,87.9763 1981.83,87.9763 1949.61,87.9763 
  "/>
<path clip-path="url(#clip302)" d="
M1981.83 87.9763 L2015.53 87.9763 L1981.83 87.9763 L1981.83 87.9763  Z
  " fill="#009af9" fill-rule="evenodd" fill-opacity="0.2"/>
<polyline clip-path="url(#clip302)" style="stroke:#000000; stroke-width:4; stroke-opacity:0.2; fill:none" points="
  1981.83,87.9763 2015.53,87.9763 1981.83,87.9763 
  "/>
<path clip-path="url(#clip302)" d="
M2015.53 87.9763 L2050.85 87.9763 L2015.53 87.9763 L2015.53 87.9763  Z
  " fill="#009af9" fill-rule="evenodd" fill-opacity="0.2"/>
<polyline clip-path="url(#clip302)" style="stroke:#000000; stroke-width:4; stroke-opacity:0.2; fill:none" points="
  2015.53,87.9763 2050.85,87.9763 2015.53,87.9763 
  "/>
<path clip-path="url(#clip302)" d="
M2050.85 87.9763 L2087.94 87.9763 L2050.85 87.9763 L2050.85 87.9763  Z
  " fill="#009af9" fill-rule="evenodd" fill-opacity="0.2"/>
<polyline clip-path="url(#clip302)" style="stroke:#000000; stroke-width:4; stroke-opacity:0.2; fill:none" points="
  2050.85,87.9763 2087.94,87.9763 2050.85,87.9763 
  "/>
<path clip-path="url(#clip302)" d="
M2087.94 87.9763 L2127 87.9763 L2087.94 87.9763 L2087.94 87.9763  Z
  " fill="#009af9" fill-rule="evenodd" fill-opacity="0.2"/>
<polyline clip-path="url(#clip302)" style="stroke:#000000; stroke-width:4; stroke-opacity:0.2; fill:none" points="
  2087.94,87.9763 2127,87.9763 2087.94,87.9763 
  "/>
<path clip-path="url(#clip302)" d="
M2127 87.9763 L2168.24 87.9763 L2127 87.9763 L2127 87.9763  Z
  " fill="#009af9" fill-rule="evenodd" fill-opacity="0.2"/>
<polyline clip-path="url(#clip302)" style="stroke:#000000; stroke-width:4; stroke-opacity:0.2; fill:none" points="
  2127,87.9763 2168.24,87.9763 2127,87.9763 
  "/>
<path clip-path="url(#clip302)" d="
M2168.24 87.9763 L2211.91 87.9763 L2168.24 87.9763 L2168.24 87.9763  Z
  " fill="#009af9" fill-rule="evenodd" fill-opacity="0.2"/>
<polyline clip-path="url(#clip302)" style="stroke:#000000; stroke-width:4; stroke-opacity:0.2; fill:none" points="
  2168.24,87.9763 2211.91,87.9763 2168.24,87.9763 
  "/>
<path clip-path="url(#clip302)" d="
M2211.91 87.9764 L2258.31 87.9764 L2211.91 87.9764 L2211.91 87.9764  Z
  " fill="#009af9" fill-rule="evenodd" fill-opacity="0.2"/>
<polyline clip-path="url(#clip302)" style="stroke:#000000; stroke-width:4; stroke-opacity:0.2; fill:none" points="
  2211.91,87.9764 2258.31,87.9764 2211.91,87.9764 
  "/>
<path clip-path="url(#clip302)" d="
M2258.31 87.9764 L2291.12 87.9764 L2258.31 87.9764 L2258.31 87.9764  Z
  " fill="#009af9" fill-rule="evenodd" fill-opacity="0.2"/>
<polyline clip-path="url(#clip302)" style="stroke:#000000; stroke-width:4; stroke-opacity:0.2; fill:none" points="
  2258.31,87.9764 2291.12,87.9764 2258.31,87.9764 
  "/>
<polyline clip-path="url(#clip302)" style="stroke:#e26f46; stroke-width:4; stroke-opacity:1; fill:none" points="
  236.501,1322.12 238.555,1309.78 240.61,1297.44 242.664,1285.11 244.719,1272.78 246.774,1260.46 248.828,1248.16 250.883,1235.87 252.937,1223.6 254.992,1211.35 
  257.047,1199.12 259.101,1186.91 261.156,1174.73 263.211,1162.58 265.265,1150.46 267.32,1138.37 269.374,1126.33 271.429,1114.31 273.484,1102.34 275.538,1090.41 
  277.593,1078.53 279.647,1066.69 281.702,1054.91 283.757,1043.17 285.811,1031.48 287.866,1019.86 289.921,1008.28 291.975,996.769 294.03,985.316 296.084,973.925 
  298.139,962.599 300.194,951.338 302.248,940.144 304.303,929.02 306.358,917.966 308.412,906.985 310.467,896.077 312.521,885.244 314.576,874.487 316.631,863.808 
  318.685,853.209 320.74,842.689 322.794,832.251 324.849,821.896 326.904,811.624 328.958,801.436 331.013,791.335 333.068,781.319 335.122,771.392 337.177,761.552 
  339.231,751.801 341.286,742.14 343.341,732.57 345.395,723.09 347.45,713.702 349.504,704.406 351.559,695.203 353.614,686.093 355.668,677.076 357.723,668.153 
  359.778,659.324 361.832,650.589 363.887,641.949 365.941,633.404 367.996,624.953 370.051,616.597 372.105,608.337 374.16,600.171 376.214,592.1 378.269,584.125 
  380.324,576.244 382.378,568.457 384.433,560.765 386.488,553.168 388.542,545.665 390.597,538.255 392.651,530.939 394.706,523.716 396.761,516.586 398.815,509.549 
  400.87,502.603 402.924,495.75 404.979,488.987 407.034,482.315 409.088,475.733 411.143,469.241 413.198,462.838 415.252,456.524 417.307,450.297 419.361,444.158 
  421.416,438.106 423.471,432.139 425.525,426.258 427.58,420.462 429.635,414.75 431.689,409.122 433.744,403.576 435.798,398.111 437.853,392.729 439.908,387.426 
  441.962,382.204 444.017,377.06 446.071,371.994 448.126,367.006 450.181,362.094 452.235,357.259 454.29,352.498 456.345,347.812 458.399,343.198 460.454,338.658 
  462.508,334.189 464.563,329.792 466.618,325.464 468.672,321.206 470.727,317.016 472.781,312.894 474.836,308.839 476.891,304.85 478.945,300.926 481,297.066 
  483.055,293.271 485.109,289.537 487.164,285.866 489.218,282.256 491.273,278.706 493.328,275.216 495.382,271.785 497.437,268.411 499.491,265.095 501.546,261.835 
  503.601,258.63 505.655,255.48 507.71,252.384 509.765,249.342 511.819,246.351 513.874,243.413 515.928,240.525 517.983,237.688 520.038,234.9 522.092,232.16 
  524.147,229.469 526.202,226.825 528.256,224.227 530.311,221.675 532.365,219.169 534.42,216.706 536.475,214.288 538.529,211.912 540.584,209.579 542.638,207.288 
  544.693,205.037 546.748,202.827 548.802,200.657 550.857,198.525 552.912,196.432 554.966,194.377 557.021,192.36 559.075,190.379 561.13,188.433 563.185,186.524 
  565.239,184.649 567.294,182.808 569.348,181.001 571.403,179.227 573.458,177.486 575.512,175.776 577.567,174.098 579.622,172.451 581.676,170.835 583.731,169.248 
  585.785,167.691 587.84,166.162 589.895,164.662 591.949,163.19 594.004,161.745 596.058,160.327 598.113,158.936 600.168,157.57 602.222,156.231 604.277,154.916 
  606.332,153.625 608.386,152.359 610.441,151.117 612.495,149.898 614.55,148.702 616.605,147.529 618.659,146.377 620.714,145.248 622.769,144.14 624.823,143.052 
  626.878,141.986 628.932,140.939 630.987,139.912 633.042,138.905 635.096,137.917 637.151,136.948 639.205,135.997 641.26,135.064 643.315,134.149 645.369,133.252 
  647.424,132.372 649.479,131.508 651.533,130.661 653.588,129.83 655.642,129.015 657.697,128.216 659.752,127.432 661.806,126.663 663.861,125.908 665.915,125.169 
  667.97,124.443 670.025,123.731 672.079,123.033 674.134,122.349 676.189,121.678 678.243,121.019 680.298,120.373 682.352,119.74 684.407,119.119 686.462,118.51 
  688.516,117.913 690.571,117.327 692.625,116.753 694.68,116.189 696.735,115.637 698.789,115.095 700.844,114.564 702.899,114.043 704.953,113.532 707.008,113.031 
  709.062,112.54 711.117,112.059 713.172,111.586 715.226,111.123 717.281,110.669 719.335,110.224 721.39,109.787 723.445,109.359 725.499,108.939 727.554,108.528 
  729.609,108.124 731.663,107.728 733.718,107.34 735.772,106.96 737.827,106.587 739.882,106.221 741.936,105.862 743.991,105.511 746.046,105.166 748.1,104.828 
  750.155,104.496 752.209,104.171 754.264,103.853 756.319,103.54 758.373,103.234 760.428,102.934 762.482,102.639 764.537,102.351 766.592,102.068 768.646,101.79 
  770.701,101.518 772.756,101.251 774.81,100.99 776.865,100.734 778.919,100.482 780.974,100.236 783.029,99.9943 785.083,99.7574 787.138,99.5253 789.192,99.2976 
  791.247,99.0745 793.302,98.8557 795.356,98.6412 797.411,98.4309 799.466,98.2247 801.52,98.0226 803.575,97.8245 805.629,97.6303 807.684,97.4398 809.739,97.2531 
  811.793,97.0701 813.848,96.8907 815.902,96.7148 817.957,96.5424 820.012,96.3733 822.066,96.2076 824.121,96.0452 826.176,95.8859 828.23,95.7298 830.285,95.5767 
  832.339,95.4267 834.394,95.2796 836.449,95.1354 838.503,94.994 840.558,94.8555 842.613,94.7196 844.667,94.5865 846.722,94.4559 848.776,94.3279 850.831,94.2025 
  852.886,94.0795 854.94,93.9589 856.995,93.8408 859.049,93.7249 861.104,93.6113 863.159,93.5 865.213,93.3909 867.268,93.2839 869.323,93.179 871.377,93.0762 
  873.432,92.9754 875.486,92.8766 877.541,92.7798 879.596,92.6849 881.65,92.5918 883.705,92.5006 885.759,92.4112 887.814,92.3235 889.869,92.2376 891.923,92.1533 
  893.978,92.0708 896.033,91.9898 898.087,91.9105 900.142,91.8327 902.196,91.7564 904.251,91.6817 906.306,91.6084 908.36,91.5366 910.415,91.4662 912.469,91.3972 
  914.524,91.3296 916.579,91.2633 918.633,91.1983 920.688,91.1346 922.743,91.0721 924.797,91.0109 926.852,90.9509 928.906,90.892 930.961,90.8344 933.016,90.7778 
  935.07,90.7224 937.125,90.6681 939.18,90.6149 941.234,90.5627 943.289,90.5115 945.343,90.4614 947.398,90.4122 949.453,90.364 951.507,90.3168 953.562,90.2705 
  955.616,90.2251 957.671,90.1806 959.726,90.137 961.78,90.0943 963.835,90.0523 965.89,90.0113 967.944,89.971 969.999,89.9315 972.053,89.8929 974.108,89.8549 
  976.163,89.8178 978.217,89.7813 980.272,89.7456 982.326,89.7106 984.381,89.6763 986.436,89.6427 988.49,89.6097 990.545,89.5774 992.6,89.5457 994.654,89.5146 
  996.709,89.4842 998.763,89.4543 1000.82,89.4251 1002.87,89.3964 1004.93,89.3683 1006.98,89.3408 1009.04,89.3138 1011.09,89.2873 1013.15,89.2614 1015.2,89.2359 
  1017.25,89.211 1019.31,89.1866 1021.36,89.1626 1023.42,89.1391 1025.47,89.1161 1027.53,89.0936 1029.58,89.0714 1031.64,89.0498 1033.69,89.0285 1035.75,89.0077 
  1037.8,88.9873 1039.86,88.9673 1041.91,88.9477 1043.96,88.9284 1046.02,88.9096 1048.07,88.8911 1050.13,88.873 1052.18,88.8553 1054.24,88.8379 1056.29,88.8208 
  1058.35,88.8041 1060.4,88.7877 1062.46,88.7717 1064.51,88.7559 1066.57,88.7405 1068.62,88.7254 1070.67,88.7105 1072.73,88.696 1074.78,88.6817 1076.84,88.6678 
  1078.89,88.6541 1080.95,88.6407 1083,88.6275 1085.06,88.6146 1087.11,88.602 1089.17,88.5896 1091.22,88.5775 1093.28,88.5656 1095.33,88.5539 1097.38,88.5425 
  1099.44,88.5313 1101.49,88.5203 1103.55,88.5095 1105.6,88.499 1107.66,88.4886 1109.71,88.4785 1111.77,88.4685 1113.82,88.4588 1115.88,88.4492 1117.93,88.4399 
  1119.99,88.4307 1122.04,88.4217 1124.1,88.4129 1126.15,88.4042 1128.2,88.3958 1130.26,88.3875 1132.31,88.3793 1134.37,88.3714 1136.42,88.3635 1138.48,88.3559 
  1140.53,88.3484 1142.59,88.341 1144.64,88.3338 1146.7,88.3267 1148.75,88.3198 1150.81,88.313 1152.86,88.3063 1154.91,88.2998 1156.97,88.2934 1159.02,88.2871 
  1161.08,88.2809 1163.13,88.2749 1165.19,88.269 1167.24,88.2632 1169.3,88.2575 1171.35,88.252 1173.41,88.2465 1175.46,88.2411 1177.52,88.2359 1179.57,88.2308 
  1181.62,88.2257 1183.68,88.2208 1185.73,88.216 1187.79,88.2112 1189.84,88.2066 1191.9,88.202 1193.95,88.1975 1196.01,88.1932 1198.06,88.1889 1200.12,88.1847 
  1202.17,88.1805 1204.23,88.1765 1206.28,88.1725 1208.33,88.1686 1210.39,88.1648 1212.44,88.1611 1214.5,88.1574 1216.55,88.1539 1218.61,88.1503 1220.66,88.1469 
  1222.72,88.1435 1224.77,88.1402 1226.83,88.137 1228.88,88.1338 1230.94,88.1307 1232.99,88.1276 1235.04,88.1246 1237.1,88.1217 1239.15,88.1188 1241.21,88.116 
  1243.26,88.1132 1245.32,88.1105 1247.37,88.1079 1249.43,88.1053 1251.48,88.1027 1253.54,88.1002 1255.59,88.0977 1257.65,88.0953 1259.7,88.093 1261.75,88.0907 
  1263.81,88.0884 1265.86,88.0862 1267.92,88.084 1269.97,88.0819 1272.03,88.0798 1274.08,88.0777 1276.14,88.0757 1278.19,88.0738 1280.25,88.0718 1282.3,88.07 
  1284.36,88.0681 1286.41,88.0663 1288.46,88.0645 1290.52,88.0628 1292.57,88.061 1294.63,88.0594 1296.68,88.0577 1298.74,88.0561 1300.79,88.0545 1302.85,88.053 
  1304.9,88.0515 1306.96,88.05 1309.01,88.0485 1311.07,88.0471 1313.12,88.0457 1315.17,88.0443 1317.23,88.043 1319.28,88.0417 1321.34,88.0404 1323.39,88.0391 
  1325.45,88.0379 1327.5,88.0366 1329.56,88.0354 1331.61,88.0343 1333.67,88.0331 1335.72,88.032 1337.78,88.0309 1339.83,88.0298 1341.88,88.0288 1343.94,88.0277 
  1345.99,88.0267 1348.05,88.0257 1350.1,88.0247 1352.16,88.0238 1354.21,88.0228 1356.27,88.0219 1358.32,88.021 1360.38,88.0201 1362.43,88.0193 1364.49,88.0184 
  1366.54,88.0176 1368.59,88.0168 1370.65,88.016 1372.7,88.0152 1374.76,88.0144 1376.81,88.0137 1378.87,88.0129 1380.92,88.0122 1382.98,88.0115 1385.03,88.0108 
  1387.09,88.0101 1389.14,88.0094 1391.2,88.0088 1393.25,88.0081 1395.3,88.0075 1397.36,88.0069 1399.41,88.0063 1401.47,88.0057 1403.52,88.0051 1405.58,88.0045 
  1407.63,88.004 1409.69,88.0034 1411.74,88.0029 1413.8,88.0024 1415.85,88.0019 1417.91,88.0014 1419.96,88.0009 1422.01,88.0004 1424.07,87.9999 1426.12,87.9994 
  1428.18,87.999 1430.23,87.9985 1432.29,87.9981 1434.34,87.9977 1436.4,87.9972 1438.45,87.9968 1440.51,87.9964 1442.56,87.996 1444.62,87.9956 1446.67,87.9953 
  1448.72,87.9949 1450.78,87.9945 1452.83,87.9942 1454.89,87.9938 1456.94,87.9935 1459,87.9931 1461.05,87.9928 1463.11,87.9925 1465.16,87.9921 1467.22,87.9918 
  1469.27,87.9915 1471.33,87.9912 1473.38,87.9909 1475.43,87.9906 1477.49,87.9904 1479.54,87.9901 1481.6,87.9898 1483.65,87.9895 1485.71,87.9893 1487.76,87.989 
  1489.82,87.9888 1491.87,87.9885 1493.93,87.9883 1495.98,87.9881 1498.04,87.9878 1500.09,87.9876 1502.14,87.9874 1504.2,87.9872 1506.25,87.9869 1508.31,87.9867 
  1510.36,87.9865 1512.42,87.9863 1514.47,87.9861 1516.53,87.9859 1518.58,87.9857 1520.64,87.9856 1522.69,87.9854 1524.75,87.9852 1526.8,87.985 1528.85,87.9848 
  1530.91,87.9847 1532.96,87.9845 1535.02,87.9844 1537.07,87.9842 1539.13,87.984 1541.18,87.9839 1543.24,87.9837 1545.29,87.9836 1547.35,87.9835 1549.4,87.9833 
  1551.46,87.9832 1553.51,87.983 1555.56,87.9829 1557.62,87.9828 1559.67,87.9826 1561.73,87.9825 1563.78,87.9824 1565.84,87.9823 1567.89,87.9822 1569.95,87.982 
  1572,87.9819 1574.06,87.9818 1576.11,87.9817 1578.17,87.9816 1580.22,87.9815 1582.27,87.9814 1584.33,87.9813 1586.38,87.9812 1588.44,87.9811 1590.49,87.981 
  1592.55,87.9809 1594.6,87.9808 1596.66,87.9807 1598.71,87.9807 1600.77,87.9806 1602.82,87.9805 1604.88,87.9804 1606.93,87.9803 1608.98,87.9803 1611.04,87.9802 
  1613.09,87.9801 1615.15,87.98 1617.2,87.98 1619.26,87.9799 1621.31,87.9798 1623.37,87.9797 1625.42,87.9797 1627.48,87.9796 1629.53,87.9795 1631.59,87.9795 
  1633.64,87.9794 1635.69,87.9794 1637.75,87.9793 1639.8,87.9792 1641.86,87.9792 1643.91,87.9791 1645.97,87.9791 1648.02,87.979 1650.08,87.979 1652.13,87.9789 
  1654.19,87.9789 1656.24,87.9788 1658.3,87.9788 1660.35,87.9787 1662.4,87.9787 1664.46,87.9786 1666.51,87.9786 1668.57,87.9785 1670.62,87.9785 1672.68,87.9785 
  1674.73,87.9784 1676.79,87.9784 1678.84,87.9783 1680.9,87.9783 1682.95,87.9783 1685.01,87.9782 1687.06,87.9782 1689.11,87.9781 1691.17,87.9781 1693.22,87.9781 
  1695.28,87.978 1697.33,87.978 1699.39,87.978 1701.44,87.9779 1703.5,87.9779 1705.55,87.9779 1707.61,87.9778 1709.66,87.9778 1711.72,87.9778 1713.77,87.9778 
  1715.82,87.9777 1717.88,87.9777 1719.93,87.9777 1721.99,87.9777 1724.04,87.9776 1726.1,87.9776 1728.15,87.9776 1730.21,87.9776 1732.26,87.9775 1734.32,87.9775 
  1736.37,87.9775 1738.43,87.9775 1740.48,87.9774 1742.53,87.9774 1744.59,87.9774 1746.64,87.9774 1748.7,87.9774 1750.75,87.9773 1752.81,87.9773 1754.86,87.9773 
  1756.92,87.9773 1758.97,87.9773 1761.03,87.9772 1763.08,87.9772 1765.14,87.9772 1767.19,87.9772 1769.24,87.9772 1771.3,87.9772 1773.35,87.9771 1775.41,87.9771 
  1777.46,87.9771 1779.52,87.9771 1781.57,87.9771 1783.63,87.9771 1785.68,87.9771 1787.74,87.977 1789.79,87.977 1791.85,87.977 1793.9,87.977 1795.95,87.977 
  1798.01,87.977 1800.06,87.977 1802.12,87.977 1804.17,87.9769 1806.23,87.9769 1808.28,87.9769 1810.34,87.9769 1812.39,87.9769 1814.45,87.9769 1816.5,87.9769 
  1818.56,87.9769 1820.61,87.9769 1822.66,87.9768 1824.72,87.9768 1826.77,87.9768 1828.83,87.9768 1830.88,87.9768 1832.94,87.9768 1834.99,87.9768 1837.05,87.9768 
  1839.1,87.9768 1841.16,87.9768 1843.21,87.9768 1845.27,87.9767 1847.32,87.9767 1849.37,87.9767 1851.43,87.9767 1853.48,87.9767 1855.54,87.9767 1857.59,87.9767 
  1859.65,87.9767 1861.7,87.9767 1863.76,87.9767 1865.81,87.9767 1867.87,87.9767 1869.92,87.9767 1871.98,87.9767 1874.03,87.9767 1876.08,87.9766 1878.14,87.9766 
  1880.19,87.9766 1882.25,87.9766 1884.3,87.9766 1886.36,87.9766 1888.41,87.9766 1890.47,87.9766 1892.52,87.9766 1894.58,87.9766 1896.63,87.9766 1898.69,87.9766 
  1900.74,87.9766 1902.79,87.9766 1904.85,87.9766 1906.9,87.9766 1908.96,87.9766 1911.01,87.9766 1913.07,87.9766 1915.12,87.9766 1917.18,87.9766 1919.23,87.9765 
  1921.29,87.9765 1923.34,87.9765 1925.4,87.9765 1927.45,87.9765 1929.5,87.9765 1931.56,87.9765 1933.61,87.9765 1935.67,87.9765 1937.72,87.9765 1939.78,87.9765 
  1941.83,87.9765 1943.89,87.9765 1945.94,87.9765 1948,87.9765 1950.05,87.9765 1952.11,87.9765 1954.16,87.9765 1956.21,87.9765 1958.27,87.9765 1960.32,87.9765 
  1962.38,87.9765 1964.43,87.9765 1966.49,87.9765 1968.54,87.9765 1970.6,87.9765 1972.65,87.9765 1974.71,87.9765 1976.76,87.9765 1978.82,87.9765 1980.87,87.9765 
  1982.92,87.9765 1984.98,87.9765 1987.03,87.9765 1989.09,87.9765 1991.14,87.9765 1993.2,87.9765 1995.25,87.9764 1997.31,87.9764 1999.36,87.9764 2001.42,87.9764 
  2003.47,87.9764 2005.53,87.9764 2007.58,87.9764 2009.63,87.9764 2011.69,87.9764 2013.74,87.9764 2015.8,87.9764 2017.85,87.9764 2019.91,87.9764 2021.96,87.9764 
  2024.02,87.9764 2026.07,87.9764 2028.13,87.9764 2030.18,87.9764 2032.24,87.9764 2034.29,87.9764 2036.34,87.9764 2038.4,87.9764 2040.45,87.9764 2042.51,87.9764 
  2044.56,87.9764 2046.62,87.9764 2048.67,87.9764 2050.73,87.9764 2052.78,87.9764 2054.84,87.9764 2056.89,87.9764 2058.95,87.9764 2061,87.9764 2063.05,87.9764 
  2065.11,87.9764 2067.16,87.9764 2069.22,87.9764 2071.27,87.9764 2073.33,87.9764 2075.38,87.9764 2077.44,87.9764 2079.49,87.9764 2081.55,87.9764 2083.6,87.9764 
  2085.66,87.9764 2087.71,87.9764 2089.76,87.9764 2091.82,87.9764 2093.87,87.9764 2095.93,87.9764 2097.98,87.9764 2100.04,87.9764 2102.09,87.9764 2104.15,87.9764 
  2106.2,87.9764 2108.26,87.9764 2110.31,87.9764 2112.37,87.9764 2114.42,87.9764 2116.47,87.9764 2118.53,87.9764 2120.58,87.9764 2122.64,87.9764 2124.69,87.9764 
  2126.75,87.9764 2128.8,87.9764 2130.86,87.9764 2132.91,87.9764 2134.97,87.9764 2137.02,87.9764 2139.08,87.9764 2141.13,87.9764 2143.18,87.9764 2145.24,87.9764 
  2147.29,87.9764 2149.35,87.9764 2151.4,87.9764 2153.46,87.9764 2155.51,87.9764 2157.57,87.9764 2159.62,87.9764 2161.68,87.9764 2163.73,87.9764 2165.79,87.9764 
  2167.84,87.9764 2169.9,87.9764 2171.95,87.9764 2174,87.9764 2176.06,87.9764 2178.11,87.9764 2180.17,87.9764 2182.22,87.9764 2184.28,87.9764 2186.33,87.9764 
  2188.39,87.9764 2190.44,87.9764 2192.5,87.9764 2194.55,87.9764 2196.61,87.9764 2198.66,87.9764 2200.71,87.9764 2202.77,87.9764 2204.82,87.9764 2206.88,87.9764 
  2208.93,87.9764 2210.99,87.9764 2213.04,87.9764 2215.1,87.9764 2217.15,87.9764 2219.21,87.9764 2221.26,87.9764 2223.32,87.9764 2225.37,87.9764 2227.42,87.9764 
  2229.48,87.9764 2231.53,87.9764 2233.59,87.9764 2235.64,87.9764 2237.7,87.9764 2239.75,87.9764 2241.81,87.9764 2243.86,87.9764 2245.92,87.9764 2247.97,87.9764 
  2250.03,87.9764 2252.08,87.9764 2254.13,87.9764 2256.19,87.9764 2258.24,87.9764 2260.3,87.9764 2262.35,87.9764 2264.41,87.9764 2266.46,87.9764 2268.52,87.9764 
  2270.57,87.9764 2272.63,87.9764 2274.68,87.9764 2276.74,87.9764 2278.79,87.9764 2280.84,87.9764 2282.9,87.9764 2284.95,87.9764 2287.01,87.9764 2289.06,87.9764 
  
  "/>
</svg>
